# Blender 3.6.0
# www.blender.org
mtllib cone.mtl
o Cone
v 0.000000 0.000000 -0.500000
v 0.097545 0.000000 -0.490393
v 0.191342 0.000000 -0.461940
v 0.277785 0.000000 -0.415735
v 0.353553 0.000000 -0.353553
v 0.415735 0.000000 -0.277785
v 0.461940 0.000000 -0.191342
v 0.490393 0.000000 -0.097545
v 0.500000 0.000000 0.000000
v 0.000000 1.000000 0.000000
v 0.490393 0.000000 0.097545
v 0.461940 0.000000 0.191342
v 0.415735 0.000000 0.277785
v 0.353553 0.000000 0.353553
v 0.277785 0.000000 0.415735
v 0.191342 0.000000 0.461940
v 0.097545 0.000000 0.490393
v -0.000000 0.000000 0.500000
v -0.097545 0.000000 0.490393
v -0.191342 0.000000 0.461940
v -0.277785 0.000000 0.415735
v -0.353554 0.000000 0.353553
v -0.415735 0.000000 0.277785
v -0.461940 0.000000 0.191341
v -0.490393 0.000000 0.097545
v -0.500000 0.000000 -0.000000
v -0.490393 0.000000 -0.097546
v -0.461940 0.000000 -0.191342
v -0.415734 0.000000 -0.277786
v -0.353553 0.000000 -0.353554
v -0.277784 0.000000 -0.415735
v -0.191341 0.000000 -0.461940
v -0.097544 0.000000 -0.490393
vn -0.0000 -0.5033 -0.8641
vn -0.0000 1.0000 -0.0000
vn 0.1685 -0.5033 -0.8475
vn 0.3306 -0.5033 -0.7984
vn 0.4800 -0.5033 -0.7185
vn 0.6110 -0.5033 -0.6110
vn 0.7185 -0.5033 -0.4800
vn 0.7984 -0.5033 -0.3306
vn 0.8475 -0.5033 -0.1685
vn 0.8641 -0.5033 -0.0000
vn 0.8475 -0.5033 0.1685
vn 0.7984 -0.5033 0.3306
vn 0.7185 -0.5033 0.4800
vn 0.6110 -0.5033 0.6110
vn 0.4800 -0.5033 0.7185
vn 0.3306 -0.5033 0.7984
vn 0.1685 -0.5033 0.8475
vn -0.0000 -0.5033 0.8641
vn -0.1685 -0.5033 0.8475
vn -0.3306 -0.5033 0.7984
vn -0.4800 -0.5033 0.7185
vn -0.6110 -0.5033 0.6111
vn -0.7185 -0.5033 0.4800
vn -0.7984 -0.5033 0.3306
vn -0.8475 -0.5033 0.1685
vn -0.8641 -0.5033 -0.0000
vn -0.8475 -0.5033 -0.1685
vn -0.7984 -0.5033 -0.3306
vn -0.7185 -0.5033 -0.4800
vn -0.6110 -0.5033 -0.6110
vn -0.4800 -0.5033 -0.7185
vn -0.3306 -0.5033 -0.7984
vn -0.1685 -0.5033 -0.8475
vn -0.0000 -1.0000 -0.0000
s 1
f 1//1 10//2 2//3
f 2//3 10//2 3//4
f 3//4 10//2 4//5
f 4//5 10//2 5//6
f 5//6 10//2 6//7
f 6//7 10//2 7//8
f 7//8 10//2 8//9
f 8//9 10//2 9//10
f 9//10 10//2 11//11
f 11//11 10//2 12//12
f 12//12 10//2 13//13
f 13//13 10//2 14//14
f 14//14 10//2 15//15
f 15//15 10//2 16//16
f 16//16 10//2 17//17
f 17//17 10//2 18//18
f 18//18 10//2 19//19
f 19//19 10//2 20//20
f 20//20 10//2 21//21
f 21//21 10//2 22//22
f 22//22 10//2 23//23
f 23//23 10//2 24//24
f 24//24 10//2 25//25
f 25//25 10//2 26//26
f 26//26 10//2 27//27
f 27//27 10//2 28//28
f 28//28 10//2 29//29
f 29//29 10//2 30//30
f 30//30 10//2 31//31
f 31//31 10//2 32//32
f 32//32 10//2 33//33
f 33//33 10//2 1//1
s 0
f 17//34 25//34 8//34
f 33//34 1//34 2//34
f 2//34 3//34 4//34
f 4//34 5//34 6//34
f 6//34 7//34 4//34
f 8//34 9//34 11//34
f 11//34 12//34 8//34
f 13//34 14//34 17//34
f 15//34 16//34 17//34
f 17//34 18//34 19//34
f 19//34 20//34 21//34
f 21//34 22//34 23//34
f 23//34 24//34 25//34
f 25//34 26//34 27//34
f 27//34 28//34 29//34
f 29//34 30//34 33//34
f 31//34 32//34 33//34
f 33//34 2//34 8//34
f 4//34 7//34 8//34
f 8//34 12//34 13//34
f 14//34 15//34 17//34
f 17//34 19//34 25//34
f 21//34 23//34 25//34
f 25//34 27//34 33//34
f 30//34 31//34 33//34
f 2//34 4//34 8//34
f 8//34 13//34 17//34
f 19//34 21//34 25//34
f 27//34 29//34 33//34
f 33//34 8//34 25//34
