# Blender 3.6.0
# www.blender.org
mtllib cube.mtl
o Cube
v 1.804095 2.000000 0.000000
v 2.000000 2.000000 -0.195905
v 2.000000 0.000000 -0.195905
v 1.804095 0.000000 0.000000
v 2.000000 2.000000 -1.804095
v 1.804095 2.000000 -2.000000
v 1.804095 0.000000 -2.000000
v 2.000000 0.000000 -1.804095
v 0.195905 2.000000 -2.000000
v 0.000000 2.000000 -1.804095
v 0.000000 0.000000 -1.804095
v 0.195905 0.000000 -2.000000
v 0.000000 2.000000 -0.195905
v 0.195905 2.000000 0.000000
v 0.195905 0.000000 0.000000
v 0.000000 0.000000 -0.195905
vn -0.0000 -1.0000 -0.0000
vn -0.0000 1.0000 -0.0000
vn 0.7071 -0.0000 0.7071
vn -0.0000 -0.0000 1.0000
vn 0.7071 -0.0000 -0.7071
vn 1.0000 -0.0000 -0.0000
vn -0.7071 -0.0000 -0.7071
vn -0.0000 -0.0000 -1.0000
vn -0.7071 -0.0000 0.7071
vn -1.0000 -0.0000 -0.0000
s 0
usemtl Material
f 8//1 4//1 16//1
f 10//2 14//2 2//2
f 4//3 2//3 1//3
f 1//4 15//4 4//4
f 8//5 6//5 5//5
f 5//6 3//6 8//6
f 12//7 10//7 9//7
f 9//8 7//8 12//8
f 14//9 16//9 15//9
f 13//10 11//10 16//10
f 16//1 11//1 12//1
f 12//1 7//1 8//1
f 8//1 3//1 4//1
f 4//1 15//1 16//1
f 16//1 12//1 8//1
f 2//2 5//2 6//2
f 6//2 9//2 10//2
f 10//2 13//2 14//2
f 14//2 1//2 2//2
f 2//2 6//2 10//2
f 4//3 3//3 2//3
f 1//4 14//4 15//4
f 8//5 7//5 6//5
f 5//6 2//6 3//6
f 12//7 11//7 10//7
f 9//8 6//8 7//8
f 14//9 13//9 16//9
f 13//10 10//10 11//10
