<svg width="17" height="16" viewBox="0 0 17 16" fill="none" xmlns="http://www.w3.org/2000/svg">
    <path
        d="M6.38889 16C5.63333 16 4.99259 15.7185 4.46667 15.1556C3.94074 14.5926 3.64074 13.9556 3.56667 13.2444C2.69259 13.1704 1.96296 12.8037 1.37778 12.1444C0.792593 11.4852 0.5 10.6815 0.5 9.73333C0.5 9.40741 0.540741 9.09259 0.622222 8.78889C0.703704 8.48519 0.825926 8.19259 0.988889 7.91111C0.825926 7.64444 0.703704 7.36296 0.622222 7.06667C0.540741 6.77037 0.5 6.45185 0.5 6.11111C0.5 5.22222 0.807407 4.45926 1.42222 3.82222C2.03704 3.18519 2.76667 2.81481 3.61111 2.71111C3.64074 1.95556 3.92593 1.31481 4.46667 0.788889C5.00741 0.262963 5.65556 0 6.41111 0C6.84074 0 7.22222 0.0777778 7.55556 0.233333C7.88889 0.388889 8.2037 0.614815 8.5 0.911111C8.7963 0.614815 9.10741 0.388889 9.43333 0.233333C9.75926 0.0777778 10.137 0 10.5667 0C11.3074 0 11.9444 0.262963 12.4778 0.788889C13.0111 1.31481 13.3 1.95556 13.3444 2.71111C14.2037 2.78519 14.9444 3.14444 15.5667 3.78889C16.1889 4.43333 16.5 5.20741 16.5 6.11111C16.5 6.45185 16.4556 6.77407 16.3667 7.07778C16.2778 7.38148 16.1519 7.66667 15.9889 7.93333C16.1519 8.22963 16.2778 8.54074 16.3667 8.86667C16.4556 9.19259 16.5 9.51111 16.5 9.82222C16.5 10.7704 16.2074 11.5593 15.6222 12.1889C15.037 12.8185 14.3074 13.1704 13.4333 13.2444C13.3593 13.9556 13.0556 14.5926 12.5222 15.1556C11.9889 15.7185 11.3519 16 10.6111 16C10.1667 16 9.78148 15.9259 9.45556 15.7778C9.12963 15.6296 8.81111 15.4074 8.5 15.1111C8.18889 15.4074 7.87037 15.6296 7.54444 15.7778C7.21852 15.9259 6.83333 16 6.38889 16ZM9.16667 2.66667V13.3333C9.16667 13.7037 9.31111 14.0185 9.6 14.2778C9.88889 14.537 10.2333 14.6667 10.6333 14.6667C11.0185 14.6667 11.3519 14.4963 11.6333 14.1556C11.9148 13.8148 12.0704 13.4667 12.1 13.1111C11.7593 12.9926 11.4407 12.8333 11.1444 12.6333C10.8481 12.4333 10.5963 12.1852 10.3889 11.8889C10.2704 11.7259 10.2259 11.5593 10.2556 11.3889C10.2852 11.2185 10.3815 11.0741 10.5444 10.9556C10.7074 10.837 10.8741 10.7926 11.0444 10.8222C11.2148 10.8519 11.3593 10.9481 11.4778 11.1111C11.6704 11.3778 11.9074 11.5815 12.1889 11.7222C12.4704 11.863 12.7815 11.9333 13.1222 11.9333C13.6852 11.9333 14.1667 11.7407 14.5667 11.3556C14.9667 10.9704 15.1667 10.4593 15.1667 9.82222C15.1667 9.68889 15.1519 9.55185 15.1222 9.41111C15.0926 9.27037 15.063 9.12593 15.0333 8.97778C14.7667 9.17037 14.4741 9.31481 14.1556 9.41111C13.837 9.50741 13.5074 9.55556 13.1667 9.55556C12.9741 9.55556 12.8148 9.49259 12.6889 9.36667C12.563 9.24074 12.5 9.08148 12.5 8.88889C12.5 8.6963 12.563 8.53704 12.6889 8.41111C12.8148 8.28519 12.9741 8.22222 13.1667 8.22222C13.7296 8.22222 14.2037 8.01482 14.5889 7.6C14.9741 7.18519 15.1667 6.68889 15.1667 6.11111C15.1667 5.54815 14.9593 5.06667 14.5444 4.66667C14.1296 4.26667 13.6556 4.05185 13.1222 4.02222C12.9741 4.37778 12.763 4.69259 12.4889 4.96667C12.2148 5.24074 11.9 5.44444 11.5444 5.57778C11.3667 5.65185 11.1963 5.64815 11.0333 5.56667C10.8704 5.48519 10.7593 5.35556 10.7 5.17778C10.6407 5 10.6481 4.82593 10.7222 4.65556C10.7963 4.48519 10.9222 4.37037 11.1 4.31111C11.3667 4.22222 11.5852 4.04444 11.7556 3.77778C11.9259 3.51111 12.0111 3.20741 12.0111 2.86667C12.0111 2.43704 11.8704 2.07407 11.5889 1.77778C11.3074 1.48148 10.9741 1.33333 10.5889 1.33333C10.2037 1.33333 9.87037 1.46296 9.58889 1.72222C9.30741 1.98148 9.16667 2.2963 9.16667 2.66667ZM7.83333 13.3333V2.66667C7.83333 2.2963 7.6963 1.98148 7.42222 1.72222C7.14815 1.46296 6.81111 1.33333 6.41111 1.33333C6.02593 1.33333 5.68889 1.48148 5.4 1.77778C5.11111 2.07407 4.96667 2.43704 4.96667 2.86667C4.96667 3.20741 5.04815 3.50741 5.21111 3.76667C5.37407 4.02593 5.58889 4.2 5.85556 4.28889C6.03333 4.34815 6.16296 4.46296 6.24444 4.63333C6.32593 4.8037 6.33704 4.97037 6.27778 5.13333C6.2037 5.31111 6.08148 5.44444 5.91111 5.53333C5.74074 5.62222 5.56667 5.62963 5.38889 5.55556C5.03333 5.43704 4.72222 5.24074 4.45556 4.96667C4.18889 4.69259 3.98148 4.37778 3.83333 4.02222C3.31481 4.06667 2.85185 4.28519 2.44444 4.67778C2.03704 5.07037 1.83333 5.54815 1.83333 6.11111C1.83333 6.68889 2.02593 7.18519 2.41111 7.6C2.7963 8.01482 3.27037 8.22222 3.83333 8.22222C4.02593 8.22222 4.18519 8.28519 4.31111 8.41111C4.43704 8.53704 4.5 8.6963 4.5 8.88889C4.5 9.08148 4.43704 9.24074 4.31111 9.36667C4.18519 9.49259 4.02593 9.55556 3.83333 9.55556C3.49259 9.55556 3.16296 9.5037 2.84444 9.4C2.52593 9.2963 2.23333 9.15556 1.96667 8.97778C1.92222 9.0963 1.88889 9.22222 1.86667 9.35556C1.84444 9.48889 1.83333 9.62222 1.83333 9.75556C1.83333 10.3926 2.02963 10.9148 2.42222 11.3222C2.81481 11.7296 3.29259 11.9333 3.85556 11.9333C4.18148 11.9333 4.48889 11.8593 4.77778 11.7111C5.06667 11.563 5.30741 11.363 5.5 11.1111C5.61852 10.963 5.76667 10.8704 5.94444 10.8333C6.12222 10.7963 6.28519 10.837 6.43333 10.9556C6.58148 11.0741 6.67407 11.2222 6.71111 11.4C6.74815 11.5778 6.70741 11.7407 6.58889 11.8889C6.38148 12.1852 6.13333 12.4333 5.84444 12.6333C5.55556 12.8333 5.24074 12.9926 4.9 13.1111C4.92963 13.4667 5.08519 13.8148 5.36667 14.1556C5.64815 14.4963 5.98889 14.6667 6.38889 14.6667C6.78889 14.6667 7.12963 14.537 7.41111 14.2778C7.69259 14.0185 7.83333 13.7037 7.83333 13.3333Z"
        fill="#151C2D" />
</svg>