<svg
    className="align-top"
    width="16"
    height="16"
    viewBox="0 0 16 16"
    fill="white"
    xmlns="http://www.w3.org/2000/svg"
>
    <path
        fillRule="evenodd"
        clipRule="evenodd"
        d="M8.99978 10.75C8.58557 10.75 8.24978 10.4142 8.24978 10V4.5C8.24978 4.08579 8.58557 3.75 8.99978 3.75C9.41399 3.75 9.74978 4.08579 9.74978 4.5V10C9.74978 10.4142 9.41399 10.75 8.99978 10.75Z"
        fill="white"
    />
    <path
        fillRule="evenodd"
        clipRule="evenodd"
        d="M3.8413 13.371C3.6157 13.0236 3.71443 12.5591 4.06182 12.3335L8.67451 9.338C9.0219 9.1124 9.4864 9.21113 9.71199 9.55852C9.93759 9.90591 9.83886 10.3704 9.49147 10.596L4.87878 13.5915C4.53139 13.8171 4.0669 13.7184 3.8413 13.371Z"
        fill="white"
    />
    <path
        fillRule="evenodd"
        clipRule="evenodd"
        d="M14.3413 13.379C14.1157 13.7264 13.6512 13.8251 13.3038 13.5995L8.69113 10.604C8.34374 10.3784 8.24501 9.91392 8.47061 9.56653C8.6962 9.21914 9.1607 9.12041 9.50809 9.34601L14.1208 12.3415C14.4682 12.5671 14.5669 13.0316 14.3413 13.379Z"
        fill="white"
    />
    <path
        d="M4.528 8.072C4.32533 8.072 4.17067 8.016 4.064 7.904C3.95733 7.792 3.904 7.632 3.904 7.424V5.104L4.16 5.816L2.272 3.136C2.19733 3.024 2.16533 2.904 2.176 2.776C2.18667 2.64267 2.24 2.528 2.336 2.432C2.432 2.336 2.568 2.288 2.744 2.288C2.872 2.288 2.98667 2.32 3.088 2.384C3.19467 2.448 3.296 2.54933 3.392 2.688L4.672 4.536H4.416L5.696 2.688C5.79733 2.544 5.896 2.44267 5.992 2.384C6.09333 2.32 6.21067 2.288 6.344 2.288C6.51467 2.288 6.648 2.33333 6.744 2.424C6.84 2.50933 6.89067 2.61867 6.896 2.752C6.90133 2.88 6.856 3.01333 6.76 3.152L4.896 5.816L5.144 5.104V7.424C5.144 7.856 4.93867 8.072 4.528 8.072Z"
        fill="white"
    />
</svg>