<svg width="16" height="16" viewBox="0 0 16 16" fill="none" xmlns="http://www.w3.org/2000/svg">
    <g clip-path="url(#clip0_3923_6183)">
        <rect width="16" height="16" rx="2" fill="#FFC500" />
        <path
            d="M12.3571 6.09239L10.2965 7.05401L8.96284 5.72033V4.91898L10.2965 3.5853L12.3571 4.54693C12.5746 4.64996 12.8265 4.55265 12.9295 4.34086C13.0326 4.12335 12.9352 3.8715 12.7235 3.76847L10.4797 2.72099C10.2622 2.61796 10.0046 2.66375 9.83287 2.83547L8.83691 3.83143C8.73388 3.69406 8.57361 3.60248 8.39044 3.60248C8.07563 3.60248 7.81805 3.86005 7.81805 4.17487V4.74726H5.99784C5.75743 4.08329 5.1278 3.60248 4.38369 3.60248C3.43351 3.60248 2.6665 4.36948 2.6665 5.31966C2.6665 5.94929 3.00994 6.49306 3.51365 6.79643L5.00187 11.616H4.38369C3.75405 11.616 3.2389 12.1311 3.2389 12.7608V13.3332H10.68V12.7608C10.68 12.1311 10.1649 11.616 9.53523 11.616H8.60795L5.76315 6.33279C5.86046 6.19542 5.9406 6.05232 5.99784 5.89205H7.81805V6.46445C7.81805 6.77926 8.07563 7.03684 8.39044 7.03684C8.57361 7.03684 8.73388 6.94526 8.83691 6.80788L9.83287 7.80385C10.0046 7.97557 10.2622 8.02136 10.4797 7.91833L12.7235 6.87084C12.941 6.76781 13.0326 6.51596 12.9295 6.29845C12.8265 6.08667 12.5746 5.98936 12.3571 6.09239ZM4.38369 5.89205C4.06887 5.89205 3.81129 5.63447 3.81129 5.31966C3.81129 5.00484 4.06887 4.74726 4.38369 4.74726C4.6985 4.74726 4.95608 5.00484 4.95608 5.31966C4.95608 5.63447 4.6985 5.89205 4.38369 5.89205ZM7.30862 11.616H6.19817L4.79008 7.03684H4.84732L7.30862 11.616Z"
            fill="white" />
    </g>
    <defs>
        <clipPath id="clip0_3923_6183">
            <rect width="16" height="16" rx="2" fill="white" />
        </clipPath>
    </defs>
</svg>