<svg
    width="24"
    height="25"
    viewBox="0 0 24 25"
    fill="none"
    xmlns="http://www.w3.org/2000/svg"
>
    <path
        d="M6.88889 18.7222C6.88889 19.7 7.68889 20.5 8.66667 20.5H15.7778C16.7556 20.5 17.5556 19.7 17.5556 18.7222V9.83333C17.5556 8.85556 16.7556 8.05556 15.7778 8.05556H8.66667C7.68889 8.05556 6.88889 8.85556 6.88889 9.83333V18.7222ZM9.55556 9.83333H14.8889C15.3778 9.83333 15.7778 10.2333 15.7778 10.7222V17.8333C15.7778 18.3222 15.3778 18.7222 14.8889 18.7222H9.55556C9.06667 18.7222 8.66667 18.3222 8.66667 17.8333V10.7222C8.66667 10.2333 9.06667 9.83333 9.55556 9.83333ZM15.3333 5.38889L14.7022 4.75778C14.5422 4.59778 14.3111 4.5 14.08 4.5H10.3644C10.1333 4.5 9.90222 4.59778 9.74222 4.75778L9.11111 5.38889H6.88889C6.4 5.38889 6 5.78889 6 6.27778C6 6.76667 6.4 7.16667 6.88889 7.16667H17.5556C18.0444 7.16667 18.4444 6.76667 18.4444 6.27778C18.4444 5.78889 18.0444 5.38889 17.5556 5.38889H15.3333Z"
        fill="white"
    />
</svg>