<svg width="16" height="12" viewBox="0 0 16 12" fill="none" xmlns="http://www.w3.org/2000/svg">
    <path
        d="M0.888889 12H15.1111C15.6 12 16 11.6143 16 11.1429V7.71429C16 7.24286 15.6 6.85714 15.1111 6.85714H0.888889C0.4 6.85714 0 7.24286 0 7.71429V11.1429C0 11.6143 0.4 12 0.888889 12ZM0.888889 5.14286H15.1111C15.6 5.14286 16 4.75714 16 4.28571C16 3.81429 15.6 3.42857 15.1111 3.42857H0.888889C0.4 3.42857 0 3.81429 0 4.28571C0 4.75714 0.4 5.14286 0.888889 5.14286ZM0 0.857143C0 1.32857 0.4 1.71429 0.888889 1.71429H15.1111C15.6 1.71429 16 1.32857 16 0.857143C16 0.385714 15.6 0 15.1111 0H0.888889C0.4 0 0 0.385714 0 0.857143Z"
        fill="#CECECE"
    />
</svg>