<svg width="16" height="12" viewBox="0 0 16 12" fill="none" xmlns="http://www.w3.org/2000/svg">
    <path
        d="M0.888889 8.57143H6.22222C6.71111 8.57143 7.11111 8.18571 7.11111 7.71429C7.11111 7.24286 6.71111 6.85714 6.22222 6.85714H0.888889C0.4 6.85714 0 7.24286 0 7.71429C0 8.18571 0.4 8.57143 0.888889 8.57143ZM0.888889 12H6.22222C6.71111 12 7.11111 11.6143 7.11111 11.1429C7.11111 10.6714 6.71111 10.2857 6.22222 10.2857H0.888889C0.4 10.2857 0 10.6714 0 11.1429C0 11.6143 0.4 12 0.888889 12ZM0.888889 5.14286H6.22222C6.71111 5.14286 7.11111 4.75714 7.11111 4.28571C7.11111 3.81429 6.71111 3.42857 6.22222 3.42857H0.888889C0.4 3.42857 0 3.81429 0 4.28571C0 4.75714 0.4 5.14286 0.888889 5.14286ZM0 0.857143C0 1.32857 0.4 1.71429 0.888889 1.71429H6.22222C6.71111 1.71429 7.11111 1.32857 7.11111 0.857143C7.11111 0.385714 6.71111 0 6.22222 0H0.888889C0.4 0 0 0.385714 0 0.857143ZM9.77778 0H15.1111C15.6 0 16 0.385714 16 0.857143V11.1429C16 11.6143 15.6 12 15.1111 12H9.77778C9.28889 12 8.88889 11.6143 8.88889 11.1429V0.857143C8.88889 0.385714 9.28889 0 9.77778 0Z"
        fill="#CECECE"
    />
</svg>