<svg
    className="group-hover:fill-white fill-light-gray text-white"
    width="24"
    height="24"
    viewBox="0 0 24 24"
    xmlns="http://www.w3.org/2000/svg"
>
    <path
        d="M16.9 11.0267C16.4467 8.72667 14.4267 7 12 7C10.0733 7 8.4 8.09333 7.56667 9.69333C5.56 9.90667 4 11.6067 4 13.6667C4 15.8733 5.79333 17.6667 8 17.6667H16.6667C18.5067 17.6667 20 16.1733 20 14.3333C20 12.5733 18.6333 11.1467 16.9 11.0267ZM16.6667 16.3333H8C6.52667 16.3333 5.33333 15.14 5.33333 13.6667C5.33333 12.3 6.35333 11.16 7.70667 11.02L8.42 10.9467L8.75333 10.3133C9.38667 9.09333 10.6267 8.33333 12 8.33333C13.7467 8.33333 15.2533 9.57333 15.5933 11.2867L15.7933 12.2867L16.8133 12.36C17.8533 12.4267 18.6667 13.3 18.6667 14.3333C18.6667 15.4333 17.7667 16.3333 16.6667 16.3333ZM9.33333 13H11.0333V15H12.9667V13H14.6667L12 10.3333L9.33333 13Z" />
</svg>