<svg width="16" height="16" viewBox="0 0 16 16" fill="none" xmlns="http://www.w3.org/2000/svg">
    <g clipPath="url(#clip0_1610_8514)">
        <path
            d="M4.27086 10C4.11886 10 4.00086 9.958 3.91686 9.874C3.83686 9.79 3.79686 9.674 3.79686 9.526V6.232C3.79686 6.076 3.83686 5.958 3.91686 5.878C3.99686 5.798 4.11286 5.758 4.26486 5.758C4.41286 5.758 4.52686 5.798 4.60686 5.878C4.68686 5.958 4.72686 6.076 4.72686 6.232V9.214H6.33486C6.46286 9.214 6.56086 9.248 6.62886 9.316C6.70086 9.384 6.73686 9.48 6.73686 9.604C6.73686 9.732 6.70086 9.83 6.62886 9.898C6.56086 9.966 6.46286 10 6.33486 10H4.27086ZM7.46431 10.054C7.31231 10.054 7.19631 10.012 7.11631 9.928C7.03631 9.844 6.99631 9.726 6.99631 9.574V6.196C6.99631 6.044 7.03631 5.926 7.11631 5.842C7.19631 5.758 7.31231 5.716 7.46431 5.716C7.61231 5.716 7.72631 5.758 7.80631 5.842C7.88631 5.926 7.92631 6.044 7.92631 6.196V9.574C7.92631 9.726 7.88631 9.844 7.80631 9.928C7.73031 10.012 7.61631 10.054 7.46431 10.054ZM8.96956 10.054C8.82956 10.054 8.72156 10.016 8.64556 9.94C8.57356 9.86 8.53756 9.748 8.53756 9.604V6.184C8.53756 6.032 8.57356 5.916 8.64556 5.836C8.72156 5.756 8.82156 5.716 8.94556 5.716C9.05356 5.716 9.13556 5.738 9.19156 5.782C9.25156 5.822 9.31956 5.89 9.39556 5.986L11.5016 8.668H11.3396V6.16C11.3396 6.02 11.3756 5.912 11.4476 5.836C11.5236 5.756 11.6316 5.716 11.7716 5.716C11.9116 5.716 12.0176 5.756 12.0896 5.836C12.1656 5.912 12.2036 6.02 12.2036 6.16V9.622C12.2036 9.754 12.1696 9.86 12.1016 9.94C12.0336 10.016 11.9416 10.054 11.8256 10.054C11.7136 10.054 11.6236 10.032 11.5556 9.988C11.4916 9.944 11.4216 9.874 11.3456 9.778L9.24556 7.096H9.40156V9.604C9.40156 9.748 9.36556 9.86 9.29356 9.94C9.22156 10.016 9.11356 10.054 8.96956 10.054Z"
            fill="white"
        />
    </g>
    <defs>
        <clipPath id="clip0_1610_8514">
            <rect width="16" height="16" fill="white" />
        </clipPath>
    </defs>
</svg>