<svg width="16" height="16" viewBox="0 0 16 16" fill="none" xmlns="http://www.w3.org/2000/svg">
    <g clipPath="url(#clip0_1610_8515)">
        <path
            d="M3.1632 10C3.0112 10 2.8932 9.958 2.8092 9.874C2.7292 9.79 2.6892 9.674 2.6892 9.526V6.232C2.6892 6.076 2.7292 5.958 2.8092 5.878C2.8892 5.798 3.0052 5.758 3.1572 5.758C3.3052 5.758 3.4192 5.798 3.4992 5.878C3.5792 5.958 3.6192 6.076 3.6192 6.232V9.214H5.2272C5.3552 9.214 5.4532 9.248 5.5212 9.316C5.5932 9.384 5.6292 9.48 5.6292 9.604C5.6292 9.732 5.5932 9.83 5.5212 9.898C5.4532 9.966 5.3552 10 5.2272 10H3.1632ZM7.37628 10.066C6.96028 10.066 6.59428 9.976 6.27828 9.796C5.96628 9.612 5.72228 9.356 5.54628 9.028C5.37428 8.7 5.28828 8.318 5.28828 7.882C5.28828 7.55 5.33628 7.252 5.43228 6.988C5.53228 6.72 5.67428 6.492 5.85828 6.304C6.04228 6.112 6.26228 5.964 6.51828 5.86C6.77828 5.756 7.06428 5.704 7.37628 5.704C7.80028 5.704 8.16828 5.794 8.48028 5.974C8.79228 6.154 9.03428 6.408 9.20628 6.736C9.38228 7.06 9.47028 7.44 9.47028 7.876C9.47028 8.208 9.42028 8.508 9.32028 8.776C9.22028 9.044 9.07828 9.274 8.89428 9.466C8.71028 9.658 8.49028 9.806 8.23428 9.91C7.97828 10.014 7.69228 10.066 7.37628 10.066ZM7.37628 9.274C7.61228 9.274 7.81228 9.22 7.97628 9.112C8.14428 9 8.27228 8.84 8.36028 8.632C8.45228 8.42 8.49828 8.17 8.49828 7.882C8.49828 7.442 8.40028 7.102 8.20428 6.862C8.00828 6.618 7.73228 6.496 7.37628 6.496C7.14428 6.496 6.94428 6.55 6.77628 6.658C6.60828 6.766 6.48028 6.924 6.39228 7.132C6.30428 7.34 6.26028 7.59 6.26028 7.882C6.26028 8.318 6.35828 8.66 6.55428 8.908C6.75028 9.152 7.02428 9.274 7.37628 9.274ZM11.8037 10.066C11.3277 10.066 10.9237 9.976 10.5917 9.796C10.2637 9.616 10.0137 9.364 9.84167 9.04C9.66967 8.716 9.58367 8.336 9.58367 7.9C9.58367 7.564 9.63367 7.262 9.73367 6.994C9.83767 6.722 9.98567 6.492 10.1777 6.304C10.3737 6.112 10.6097 5.964 10.8857 5.86C11.1657 5.756 11.4817 5.704 11.8337 5.704C12.0497 5.704 12.2657 5.728 12.4817 5.776C12.6977 5.824 12.9057 5.904 13.1057 6.016C13.1897 6.064 13.2457 6.126 13.2737 6.202C13.3057 6.274 13.3137 6.352 13.2977 6.436C13.2857 6.516 13.2537 6.588 13.2017 6.652C13.1537 6.712 13.0897 6.752 13.0097 6.772C12.9337 6.788 12.8457 6.772 12.7457 6.724C12.6137 6.652 12.4737 6.6 12.3257 6.568C12.1777 6.532 12.0157 6.514 11.8397 6.514C11.5557 6.514 11.3177 6.568 11.1257 6.676C10.9337 6.78 10.7897 6.936 10.6937 7.144C10.6017 7.348 10.5557 7.6 10.5557 7.9C10.5557 8.352 10.6637 8.694 10.8797 8.926C11.0997 9.158 11.4237 9.274 11.8517 9.274C11.9957 9.274 12.1437 9.26 12.2957 9.232C12.4477 9.204 12.5977 9.164 12.7457 9.112L12.5717 9.49V8.338H12.0317C11.9117 8.338 11.8197 8.308 11.7557 8.248C11.6917 8.188 11.6597 8.106 11.6597 8.002C11.6597 7.894 11.6917 7.812 11.7557 7.756C11.8197 7.696 11.9117 7.666 12.0317 7.666H12.9737C13.0937 7.666 13.1837 7.698 13.2437 7.762C13.3077 7.826 13.3397 7.918 13.3397 8.038V9.43C13.3397 9.534 13.3197 9.622 13.2797 9.694C13.2397 9.766 13.1717 9.818 13.0757 9.85C12.8957 9.914 12.6937 9.966 12.4697 10.006C12.2457 10.046 12.0237 10.066 11.8037 10.066Z"
            fill="white"
        />
    </g>
    <defs>
        <clipPath id="clip0_1610_8515">
            <rect width="16" height="16" fill="white" />
        </clipPath>
    </defs>
</svg>