<svg height="20" version="1.1" id="Layer_1" xmlns="http://www.w3.org/2000/svg"
	xmlns:xlink="http://www.w3.org/1999/xlink" x="0px" y="0px"
	viewBox="0 0 92 168" style="enable-background:new 0 0 92 168;" xml:space="preserve">
<style type="text/css">
	.st0{fill:none;}
	.st1{fill:#FFFFFF;}
	.st2{fill:#FFC100;}
</style>
<circle class="st0" cx="37.5" cy="51.6" r="22"/>
<path class="st0" d="M37.3,110.2c-12,0-21.6,9.7-21.6,21.6s9.7,21.6,21.6,21.6s21.6-9.7,21.6-21.6c0,0,0,0,0,0
	C58.9,119.9,49.2,110.2,37.3,110.2z"/>
<path class="st1" d="M37.3,99.5C19.4,99.5,5,114,5,131.8s14.5,32.3,32.3,32.3s32.3-14.5,32.3-32.3C69.6,114,55.1,99.5,37.3,99.5z
	 M37.3,153.4c-12,0-21.6-9.7-21.6-21.6s9.7-21.6,21.6-21.6s21.6,9.7,21.6,21.6l0,0C58.9,143.8,49.2,153.4,37.3,153.4z"/>
<circle class="st2" cx="76.8" cy="14.1" r="10.2"/>
<path class="st1" d="M37.3,19.1C19.4,19.1,5,33.6,5,51.4s14.5,32.3,32.3,32.3s32.3-14.5,32.3-32.3C69.6,33.6,55.1,19.1,37.3,19.1z
	 M37.5,73.6c-12.2,0-22-9.8-22-22s9.8-22,22-22s22,9.8,22,22l0,0C59.5,63.8,49.7,73.6,37.5,73.6z"/>
</svg>