<svg width="32" height="32" viewBox="0 0 32 32" fill="none" xmlns="http://www.w3.org/2000/svg">
    <rect width="32" height="32" rx="4" fill="#0058D8" />
    <path
        d="M24 12H21V8H7C5.9 8 5 8.9 5 10V21H7C7 22.66 8.34 24 10 24C11.66 24 13 22.66 13 21H19C19 22.66 20.34 24 22 24C23.66 24 25 22.66 25 21H27V16L24 12ZM23.5 13.5L25.46 16H21V13.5H23.5ZM10 22C9.45 22 9 21.55 9 21C9 20.45 9.45 20 10 20C10.55 20 11 20.45 11 21C11 21.55 10.55 22 10 22ZM12.22 19C11.67 18.39 10.89 18 10 18C9.11 18 8.33 18.39 7.78 19H7V10H19V19H12.22ZM22 22C21.45 22 21 21.55 21 21C21 20.45 21.45 20 22 20C22.55 20 23 20.45 23 21C23 21.55 22.55 22 22 22Z"
        fill="white"
    />
</svg>