<svg
    className="mr-2"
    width="19"
    height="9"
    viewBox="0 0 19 9"
    fill="none"
    xmlns="http://www.w3.org/2000/svg"
>
    <path
        d="M4.32129 6.13477C4.32129 5.85807 4.22363 5.64648 4.02832 5.5C3.83301 5.35026 3.48145 5.19401 2.97363 5.03125C2.46582 4.86523 2.0638 4.70247 1.76758 4.54297C0.960286 4.10677 0.556641 3.51921 0.556641 2.78027C0.556641 2.39616 0.664062 2.05436 0.878906 1.75488C1.09701 1.45215 1.40788 1.21615 1.81152 1.04688C2.21842 0.877604 2.67415 0.792969 3.17871 0.792969C3.68652 0.792969 4.139 0.885742 4.53613 1.07129C4.93327 1.25358 5.24089 1.51237 5.45898 1.84766C5.68034 2.18294 5.79102 2.5638 5.79102 2.99023H4.32617C4.32617 2.66471 4.22363 2.41243 4.01855 2.2334C3.81348 2.05111 3.52539 1.95996 3.1543 1.95996C2.79622 1.95996 2.5179 2.03646 2.31934 2.18945C2.12077 2.33919 2.02148 2.53776 2.02148 2.78516C2.02148 3.01628 2.13704 3.20996 2.36816 3.36621C2.60254 3.52246 2.94596 3.66895 3.39844 3.80566C4.23177 4.05632 4.83887 4.36719 5.21973 4.73828C5.60059 5.10938 5.79102 5.57161 5.79102 6.125C5.79102 6.74023 5.55827 7.22363 5.09277 7.5752C4.62728 7.9235 4.00065 8.09766 3.21289 8.09766C2.66602 8.09766 2.16797 7.99837 1.71875 7.7998C1.26953 7.59798 0.926107 7.32292 0.688477 6.97461C0.454102 6.6263 0.336914 6.22266 0.336914 5.76367H1.80664C1.80664 6.54818 2.27539 6.94043 3.21289 6.94043C3.5612 6.94043 3.83301 6.87044 4.02832 6.73047C4.22363 6.58724 4.32129 6.38867 4.32129 6.13477ZM6.85711 8V0.890625H9.04461C9.66961 0.890625 10.2279 1.03223 10.7194 1.31543C11.2142 1.59538 11.5999 1.99577 11.8766 2.5166C12.1533 3.03418 12.2917 3.62337 12.2917 4.28418V4.61133C12.2917 5.27214 12.155 5.8597 11.8815 6.37402C11.6113 6.88835 11.2289 7.28711 10.7341 7.57031C10.2393 7.85352 9.681 7.99674 9.05926 8H6.85711ZM8.32195 2.07715V6.82324H9.02996C9.60288 6.82324 10.0407 6.63607 10.3434 6.26172C10.6462 5.88737 10.8008 5.35189 10.8073 4.65527V4.2793C10.8073 3.55664 10.6576 3.00977 10.3581 2.63867C10.0586 2.26432 9.62078 2.07715 9.04461 2.07715H8.32195ZM18.3627 2.07715H16.1849V8H14.7201V2.07715H12.5716V0.890625H18.3627V2.07715Z"
        fill="#0058D8"
    />
</svg>