<svg width="17" height="11" viewBox="0 0 17 11" fill="none" xmlns="http://www.w3.org/2000/svg">
    <path
        d="M7.7778 10.6667H9.55558C10.0445 10.6667 10.4445 10.2667 10.4445 9.77778C10.4445 9.28889 10.0445 8.88889 9.55558 8.88889H7.7778C7.28891 8.88889 6.88891 9.28889 6.88891 9.77778C6.88891 10.2667 7.28891 10.6667 7.7778 10.6667ZM0.666687 0.888889C0.666687 1.37778 1.06669 1.77778 1.55558 1.77778H15.7778C16.2667 1.77778 16.6667 1.37778 16.6667 0.888889C16.6667 0.4 16.2667 0 15.7778 0H1.55558C1.06669 0 0.666687 0.4 0.666687 0.888889ZM4.22224 6.22222H13.1111C13.6 6.22222 14 5.82222 14 5.33333C14 4.84444 13.6 4.44444 13.1111 4.44444H4.22224C3.73335 4.44444 3.33335 4.84444 3.33335 5.33333C3.33335 5.82222 3.73335 6.22222 4.22224 6.22222Z"
        fill="#CECECE"
    />
</svg>