<svg width="16" height="16" viewBox="0 0 16 16" fill="none" xmlns="http://www.w3.org/2000/svg">
    <path
        d="M9.63636 8.36364C10.8418 8.36364 11.8182 7.38727 11.8182 6.18182C11.8182 4.97636 10.8418 4 9.63636 4C8.43091 4 7.45455 4.97636 7.45455 6.18182C7.45455 7.38727 8.43091 8.36364 9.63636 8.36364ZM4.72727 7.27273V6.18182C4.72727 5.88182 4.48182 5.63636 4.18182 5.63636C3.88182 5.63636 3.63636 5.88182 3.63636 6.18182V7.27273H2.54545C2.24545 7.27273 2 7.51818 2 7.81818C2 8.11818 2.24545 8.36364 2.54545 8.36364H3.63636V9.45455C3.63636 9.75455 3.88182 10 4.18182 10C4.48182 10 4.72727 9.75455 4.72727 9.45455V8.36364H5.81818C6.11818 8.36364 6.36364 8.11818 6.36364 7.81818C6.36364 7.51818 6.11818 7.27273 5.81818 7.27273H4.72727ZM9.63636 9.45455C8.18 9.45455 5.27273 10.1855 5.27273 11.6364V12.1818C5.27273 12.4818 5.51818 12.7273 5.81818 12.7273H13.4545C13.7545 12.7273 14 12.4818 14 12.1818V11.6364C14 10.1855 11.0927 9.45455 9.63636 9.45455Z"
        fill="#000"
    />
</svg>