<svg width="16" height="16" viewBox="0 0 16 16" fill="none">
    <path
        d="M13.5054 10.2221V5.77806C13.5069 5.50644 13.4362 5.23931 13.3006 5.00398C13.1649 4.76866 12.9692 4.57359 12.7334 4.43872L8.8601 2.20939C8.62503 2.07241 8.35783 2.00024 8.08577 2.00024C7.8137 2.00024 7.5465 2.07241 7.31143 2.20939L3.44076 4.43339C3.20525 4.57007 3.00979 4.76622 2.87395 5.00222C2.73811 5.23821 2.66666 5.50576 2.66677 5.77806V10.2221C2.66549 10.4939 2.73649 10.7611 2.87249 10.9965C3.0085 11.2318 3.20462 11.4268 3.44076 11.5614L7.31143 13.7914C7.5465 13.9284 7.8137 14.0005 8.08577 14.0005C8.35783 14.0005 8.62503 13.9284 8.8601 13.7914L12.7334 11.5614C12.9692 11.4265 13.1649 11.2315 13.3006 10.9961C13.4362 10.7608 13.5069 10.4937 13.5054 10.2221ZM7.3121 12.0027L4.21543 10.2221V6.63739L7.3121 8.44139V12.0027ZM8.0861 7.10006L5.0201 5.31339L8.08677 3.54806L11.1534 5.31339L8.0861 7.10006ZM11.9568 10.2201L8.8601 12.0027V8.44139L11.9568 6.63739V10.2201Z"
        fill="#595E68"
    />
</svg>