<svg width="16" height="16" viewBox="0 0 16 16" fill="none" xmlns="http://www.w3.org/2000/svg">
    <path
        d="M3.99559 7.90785L2.0973 9.68086C1.96757 9.80796 1.96757 10.005 2.0973 10.1321L3.99559 11.9051C4.20727 12.1084 4.576 11.9623 4.576 11.6826V10.5388H8.67984C9.0554 10.5388 9.36268 10.2528 9.36268 9.90328C9.36268 9.55376 9.0554 9.26779 8.67984 9.26779H4.576V8.13027C4.576 7.84431 4.20727 7.7045 3.99559 7.90785ZM13.9035 5.86794L12.0053 4.09494C11.7936 3.89158 11.4248 4.03774 11.4248 4.31736V5.45488H7.31417C6.93861 5.45488 6.63133 5.74085 6.63133 6.09036C6.63133 6.43988 6.93861 6.72585 7.31417 6.72585H11.418V7.86337C11.418 8.14934 11.7867 8.28915 11.9984 8.08579L13.8967 6.31278C14.0333 6.19204 14.0333 5.98869 13.9035 5.86794Z"
        fill="white"
    />
</svg>