<svg
    fill="#CECECE"
    width="24"
    height="24"
    viewBox="0 0 24 24"
>
    <path
        d="M16.0055 6C14.5866 6 13.0587 6.29104 12.0036 7.09141C10.9486 6.29104 9.42065 6 8.00182 6C6.94679 6 5.82628 6.16007 4.88768 6.57481C4.35653 6.81492 4 7.33151 4 7.92087V16.1282C4 17.0741 4.88768 17.7726 5.80446 17.5398C6.51751 17.3579 7.27422 17.2779 8.00182 17.2779C9.13688 17.2779 10.3447 17.467 11.3197 17.9472C11.7563 18.1655 12.251 18.1655 12.6803 17.9472C13.6553 17.4598 14.8631 17.2779 15.9982 17.2779C16.7258 17.2779 17.4825 17.3579 18.1955 17.5398C19.1123 17.7799 20 17.0814 20 16.1282V7.92087C20 7.33151 19.6435 6.81492 19.1123 6.57481C18.181 6.16007 17.0605 6 16.0055 6ZM18.5521 15.2624C18.5521 15.7208 18.1301 16.0555 17.6789 15.9754C17.1332 15.8736 16.5657 15.8299 16.0055 15.8299C14.7685 15.8299 12.9859 16.3029 12.0036 16.9213V8.54661C12.9859 7.92815 14.7685 7.45521 16.0055 7.45521C16.6749 7.45521 17.337 7.52069 17.97 7.65894C18.3047 7.7317 18.5521 8.03001 18.5521 8.37199V15.2624Z" />
</svg>