<svg
    width="24"
    height="24" viewBox="0 0 24 24" fill="none" xmlns="http://www.w3.org/2000/svg">
    <path
        d="M6.5 11H9.5C10.325 11 11 10.325 11 9.5V6.5C11 5.675 10.325 5 9.5 5H6.5C5.675 5 5 5.675 5 6.5V9.5C5 10.325 5.675 11 6.5 11Z"
        fill="white"
    />
    <path
        d="M6.5 19H9.5C10.325 19 11 18.325 11 17.5V14.5C11 13.675 10.325 13 9.5 13H6.5C5.675 13 5 13.675 5 14.5V17.5C5 18.325 5.675 19 6.5 19Z"
        fill="white"
    />
    <path
        d="M13 6.5V9.5C13 10.325 13.675 11 14.5 11H17.5C18.325 11 19 10.325 19 9.5V6.5C19 5.675 18.325 5 17.5 5H14.5C13.675 5 13 5.675 13 6.5Z"
        fill="white"
    />
    <path
        d="M14.5 19H17.5C18.325 19 19 18.325 19 17.5V14.5C19 13.675 18.325 13 17.5 13H14.5C13.675 13 13 13.675 13 14.5V17.5C13 18.325 13.675 19 14.5 19Z"
        fill="white"
    />
</svg>