<svg id="Layer_1" data-name="Layer 1" xmlns="http://www.w3.org/2000/svg" viewBox="0 0 300 300"><defs><style>.cls-1{fill:none;}.cls-2{fill:#fff;}.cls-3{fill:#ffc100;}</style></defs><circle class="cls-1" cx="141.51" cy="117.64" r="21.97" transform="translate(-14.09 19.38) rotate(-7.47)"/><path class="cls-1" d="M141.28,176.18a21.64,21.64,0,1,0,21.64,21.63A21.66,21.66,0,0,0,141.28,176.18Z"/><path class="cls-2" d="M141.28,165.51a32.3,32.3,0,1,0,32.3,32.3A32.34,32.34,0,0,0,141.28,165.51Zm0,53.94a21.64,21.64,0,1,1,21.64-21.64A21.67,21.67,0,0,1,141.28,219.45Z"/><circle class="cls-3" cx="180.84" cy="80.07" r="10.18"/><path class="cls-2" d="M141.28,85.11a32.3,32.3,0,1,0,32.3,32.3A32.34,32.34,0,0,0,141.28,85.11Zm.23,54.5a22,22,0,1,1,22-22A22,22,0,0,1,141.51,139.61Z"/></svg>