<?xml version="1.0" encoding="utf-8"?>
<!-- Generator: Adobe Illustrator 27.0.1, SVG Export Plug-In . SVG Version: 6.00 Build 0)  -->
<svg version="1.1" id="Layer_1" xmlns="http://www.w3.org/2000/svg" xmlns:xlink="http://www.w3.org/1999/xlink" x="0px" y="0px"
	 viewBox="0 0 332 137.5" style="enable-background:new 0 0 332 137.5;" xml:space="preserve">
<style type="text/css">
	.st0{fill:#FFFFFF;}
	.st1{fill:#FFC100;}
</style>
<path class="st0" d="M28,71C13.6,71,2,59.3,2,45s11.6-26,26-26s26,11.6,26,26C54,59.3,42.3,70.9,28,71z M28.2,27.4
	c-9.8,0-17.7,7.9-17.7,17.7s7.9,17.7,17.7,17.7s17.7-7.9,17.7-17.7c0,0,0,0,0,0C45.9,35.3,37.9,27.4,28.2,27.4
	C28.2,27.4,28.1,27.4,28.2,27.4L28.2,27.4z"/>
<path class="st0" d="M28,135.7c-14.4,0-26-11.6-26-26s11.6-26,26-26s26,11.6,26,26C54,124.1,42.3,135.7,28,135.7z M28,92.3
	c-9.6,0-17.5,7.8-17.5,17.4c0,9.6,7.8,17.5,17.4,17.5c9.6,0,17.5-7.8,17.5-17.4c0,0,0,0,0,0C45.4,100.1,37.6,92.3,28,92.3L28,92.3z"
	/>
<circle class="st1" cx="59.8" cy="14.8" r="8.2"/>
<path class="st0" d="M93.6,60.8c-3.7-0.1-5.5-3-5.5-8.8V6.1c0.1-2.4-1.7-4.4-4.1-4.6c-2.4-0.1-4.4,1.7-4.6,4.1c0,0.1,0,0.3,0,0.4V52
	c0,10.5,5.6,17.3,14.2,17.3c2.4,0,4.3-1.9,4.3-4.3C97.8,62.7,95.9,60.8,93.6,60.8L93.6,60.8z"/>
<path class="st0" d="M148.1,18c-1.6,0-3.1,0.9-3.8,2.3L128,55.9l-15.9-35.2c-0.6-1.6-2.2-2.7-4-2.7c-2.3,0-4.3,1.9-4.3,4.2
	c0,0.5,0.1,1.1,0.3,1.6l0.1,0.2l19.2,42l-1,2.1c-2.5,5.4-5.3,8.3-8.5,8.7c-2.3,0.3-4,2.4-3.7,4.7c0.2,2.1,2,3.7,4.2,3.8
	c0.5,0,1,0,1.4-0.1c6.1-1.1,10.9-5.7,14.5-13.5l21.7-47.5c0.3-0.6,0.4-1.2,0.4-1.9C152.2,19.9,150.4,18.1,148.1,18z"/>
<path class="st0" d="M185.7,17.6c-5.2-0.1-10.3,1.4-14.6,4.3c-0.1-2.4-2.2-4.3-4.6-4.1c-2.4,0.1-4.3,2.2-4.1,4.6v58.4
	c-0.1,2.4,1.7,4.4,4.1,4.6c2.4,0.1,4.4-1.7,4.6-4.1c0-0.1,0-0.3,0-0.4V65.7c4.3,2.9,9.4,4.4,14.6,4.3c14.1,0,25.6-11.8,25.6-26.2
	c0-6.9-2.7-13.5-7.6-18.4C199.1,20.4,192.5,17.7,185.7,17.6z M185.7,26.2c9.1,0,16.8,8.1,16.8,17.6s-7.7,17.7-16.8,17.7
	c-6.4,0-12-3.1-14.6-7.9V34.1C173.7,29.3,179.3,26.2,185.7,26.2z"/>
<path class="st0" d="M248.1,17.6c-5.7-0.1-11.3,1.5-16,4.7V6.1c0-2.4-1.9-4.4-4.4-4.4s-4.4,1.9-4.4,4.4V65c0,2.4,1.9,4.4,4.4,4.4
	s4.4-1.9,4.4-4.4V34.2c2.7-4.9,8.7-8.1,15.5-8.1c9.8,0,14.1,4.7,14.1,15.2V65c0.1,2.4,2.2,4.3,4.6,4.1c2.2-0.1,4-1.9,4.1-4.1V41
	C270.5,26.6,261.9,17.6,248.1,17.6z"/>
<path class="st0" d="M329,62.3l-17.5-18.6L329,25.1l0.1-0.2l0.1-0.2c0.5-0.7,0.8-1.6,0.8-2.5c0-2.3-1.9-4.3-4.2-4.3
	c-1.3,0-2.5,0.6-3.3,1.6l-16.8,17.9L289,19.6c-0.8-1-2-1.5-3.3-1.6c-2.4,0-4.3,1.9-4.3,4.3v0c0,0.9,0.3,1.8,0.8,2.5l0.1,0.2
	L300,43.7l-17.3,18.4l-0.2,0.2c-0.6,0.7-1,1.7-1,2.6c0,2.4,1.9,4.3,4.3,4.3l0,0c1.1,0,2.1-0.4,2.9-1.2L305.8,50l17,18.1l0.1,0.1
	c0.8,0.8,1.8,1.2,2.9,1.2c2.4,0,4.3-1.9,4.3-4.3l0,0C330,64.1,329.6,63.1,329,62.3L329,62.3z"/>
</svg>
