<svg id="Layer_1" data-name="Layer 1" xmlns="http://www.w3.org/2000/svg" viewBox="0 0 600 300"><defs><style>.cls-1{fill:#fff;}.cls-2{fill:#ffc100;}</style></defs><path class="cls-1" d="M162,152.22a26,26,0,1,1,26-26A26.05,26.05,0,0,1,162,152.22Zm.19-43.55a17.71,17.71,0,1,0,17.7,17.71A17.72,17.72,0,0,0,162.14,108.67Z"/><path class="cls-1" d="M162,217a26,26,0,1,1,26-26A26.05,26.05,0,0,1,162,217Zm0-43.47A17.44,17.44,0,1,0,179.39,191,17.46,17.46,0,0,0,162,173.54Z"/><circle class="cls-2" cx="193.83" cy="96.1" r="8.21"/><path class="cls-1" d="M227.59,142.05c-3.67-.06-5.53-3-5.53-8.8V87.35a4.36,4.36,0,1,0-8.71,0v45.9c0,10.52,5.57,17.32,14.2,17.32a4.26,4.26,0,0,0,0-8.52Z"/><path class="cls-1" d="M282.06,99.27a4.1,4.1,0,0,0-3.82,2.35L262,137.18,246.1,101.93a4.2,4.2,0,0,0-4-2.66,4.24,4.24,0,0,0-4,5.76l.07.22,19.2,42-1,2.14c-2.47,5.43-5.33,8.34-8.49,8.66a4.27,4.27,0,0,0,.42,8.51,6,6,0,0,0,1.43-.15c6.06-1.1,10.92-5.66,14.45-13.54l21.66-47.49a4.68,4.68,0,0,0,.41-1.86A4.26,4.26,0,0,0,282.06,99.27Z"/><path class="cls-1" d="M319.74,98.89a25,25,0,0,0-14.6,4.32,4.35,4.35,0,0,0-8.69.42V162a4.36,4.36,0,1,0,8.71,0V146.93a25,25,0,0,0,14.58,4.3c14.14,0,25.65-11.76,25.65-26.21a26.1,26.1,0,0,0-7.61-18.44A25.2,25.2,0,0,0,319.74,98.89Zm0,8.52c9.13,0,16.84,8.06,16.84,17.61s-7.71,17.7-16.84,17.7c-6.4,0-12.05-3.07-14.58-7.85V115.34C307.67,110.51,313.33,107.41,319.74,107.41Z"/><path class="cls-1" d="M382.11,98.89a27.48,27.48,0,0,0-16,4.66V87.35a4.35,4.35,0,1,0-8.7,0v58.87a4.35,4.35,0,0,0,8.7,0V115.47c2.69-4.91,8.71-8.06,15.53-8.06,9.75,0,14.1,4.67,14.1,15.15v23.66a4.36,4.36,0,0,0,8.71,0v-24C404.45,107.81,395.89,98.89,382.11,98.89Z"/><path class="cls-1" d="M463,143.56,445.55,125,463,106.38l.14-.15.15-.22a4,4,0,0,0,.82-2.48,4.26,4.26,0,0,0-4.25-4.26,4.37,4.37,0,0,0-3.3,1.56l-16.77,17.89L423,100.83a4.36,4.36,0,0,0-3.29-1.56,4.26,4.26,0,0,0-4.26,4.26,4,4,0,0,0,.82,2.48l.15.23L434,125l-17.32,18.45-.16.2a4.13,4.13,0,0,0-1,2.65,4.26,4.26,0,0,0,4.26,4.26,4,4,0,0,0,2.9-1.17l17.07-18.18,17,18.13.06.05a4,4,0,0,0,2.9,1.17,4.26,4.26,0,0,0,4.26-4.26,4.13,4.13,0,0,0-1-2.65Z"/></svg>