<svg width="24" height="25" viewBox="0 0 24 25" fill="none" xmlns="http://www.w3.org/2000/svg">
    <path
        d="M14.1818 12.3182C15.7891 12.3182 17.0909 11.0164 17.0909 9.40909C17.0909 7.80182 15.7891 6.5 14.1818 6.5C12.5745 6.5 11.2727 7.80182 11.2727 9.40909C11.2727 11.0164 12.5745 12.3182 14.1818 12.3182ZM7.63636 10.8636V9.40909C7.63636 9.00909 7.30909 8.68182 6.90909 8.68182C6.50909 8.68182 6.18182 9.00909 6.18182 9.40909V10.8636H4.72727C4.32727 10.8636 4 11.1909 4 11.5909C4 11.9909 4.32727 12.3182 4.72727 12.3182H6.18182V13.7727C6.18182 14.1727 6.50909 14.5 6.90909 14.5C7.30909 14.5 7.63636 14.1727 7.63636 13.7727V12.3182H9.09091C9.49091 12.3182 9.81818 11.9909 9.81818 11.5909C9.81818 11.1909 9.49091 10.8636 9.09091 10.8636H7.63636ZM14.1818 13.7727C12.24 13.7727 8.36364 14.7473 8.36364 16.6818V17.4091C8.36364 17.8091 8.69091 18.1364 9.09091 18.1364H19.2727C19.6727 18.1364 20 17.8091 20 17.4091V16.6818C20 14.7473 16.1236 13.7727 14.1818 13.7727Z"
        fill="white"
    />
</svg>