<svg width="16" height="16" viewBox="0 0 16 16" fill="none" xmlns="http://www.w3.org/2000/svg">
    <path
        d="M5.88889 16C5.13333 16 4.49259 15.7185 3.96667 15.1556C3.44074 14.5926 3.14074 13.9556 3.06667 13.2444C2.19259 13.1704 1.46296 12.8037 0.877778 12.1444C0.292593 11.4852 0 10.6815 0 9.73333C0 9.40741 0.0407407 9.09259 0.122222 8.78889C0.203704 8.48519 0.325926 8.19259 0.488889 7.91111C0.325926 7.64444 0.203704 7.36296 0.122222 7.06667C0.0407407 6.77037 0 6.45185 0 6.11111C0 5.22222 0.307407 4.45926 0.922222 3.82222C1.53704 3.18519 2.26667 2.81481 3.11111 2.71111C3.14074 1.95556 3.42593 1.31481 3.96667 0.788889C4.50741 0.262963 5.15556 0 5.91111 0C6.34074 0 6.72222 0.0777778 7.05556 0.233333C7.38889 0.388889 7.7037 0.614815 8 0.911111C8.2963 0.614815 8.60741 0.388889 8.93333 0.233333C9.25926 0.0777778 9.63704 0 10.0667 0C10.8074 0 11.4444 0.262963 11.9778 0.788889C12.5111 1.31481 12.8 1.95556 12.8444 2.71111C13.7037 2.78519 14.4444 3.14444 15.0667 3.78889C15.6889 4.43333 16 5.20741 16 6.11111C16 6.45185 15.9556 6.77407 15.8667 7.07778C15.7778 7.38148 15.6519 7.66667 15.4889 7.93333C15.6519 8.22963 15.7778 8.54074 15.8667 8.86667C15.9556 9.19259 16 9.51111 16 9.82222C16 10.7704 15.7074 11.5593 15.1222 12.1889C14.537 12.8185 13.8074 13.1704 12.9333 13.2444C12.8593 13.9556 12.5556 14.5926 12.0222 15.1556C11.4889 15.7185 10.8519 16 10.1111 16C9.66667 16 9.28148 15.9259 8.95556 15.7778C8.62963 15.6296 8.31111 15.4074 8 15.1111C7.68889 15.4074 7.37037 15.6296 7.04444 15.7778C6.71852 15.9259 6.33333 16 5.88889 16ZM8.66667 2.66667V13.3333C8.66667 13.7037 8.81111 14.0185 9.1 14.2778C9.38889 14.537 9.73333 14.6667 10.1333 14.6667C10.5185 14.6667 10.8519 14.4963 11.1333 14.1556C11.4148 13.8148 11.5704 13.4667 11.6 13.1111C11.2593 12.9926 10.9407 12.8333 10.6444 12.6333C10.3481 12.4333 10.0963 12.1852 9.88889 11.8889C9.77037 11.7259 9.72593 11.5593 9.75556 11.3889C9.78519 11.2185 9.88148 11.0741 10.0444 10.9556C10.2074 10.837 10.3741 10.7926 10.5444 10.8222C10.7148 10.8519 10.8593 10.9481 10.9778 11.1111C11.1704 11.3778 11.4074 11.5815 11.6889 11.7222C11.9704 11.863 12.2815 11.9333 12.6222 11.9333C13.1852 11.9333 13.6667 11.7407 14.0667 11.3556C14.4667 10.9704 14.6667 10.4593 14.6667 9.82222C14.6667 9.68889 14.6519 9.55185 14.6222 9.41111C14.5926 9.27037 14.563 9.12593 14.5333 8.97778C14.2667 9.17037 13.9741 9.31481 13.6556 9.41111C13.337 9.50741 13.0074 9.55556 12.6667 9.55556C12.4741 9.55556 12.3148 9.49259 12.1889 9.36667C12.063 9.24074 12 9.08148 12 8.88889C12 8.6963 12.063 8.53704 12.1889 8.41111C12.3148 8.28519 12.4741 8.22222 12.6667 8.22222C13.2296 8.22222 13.7037 8.01482 14.0889 7.6C14.4741 7.18519 14.6667 6.68889 14.6667 6.11111C14.6667 5.54815 14.4593 5.06667 14.0444 4.66667C13.6296 4.26667 13.1556 4.05185 12.6222 4.02222C12.4741 4.37778 12.263 4.69259 11.9889 4.96667C11.7148 5.24074 11.4 5.44444 11.0444 5.57778C10.8667 5.65185 10.6963 5.64815 10.5333 5.56667C10.3704 5.48519 10.2593 5.35556 10.2 5.17778C10.1407 5 10.1481 4.82593 10.2222 4.65556C10.2963 4.48519 10.4222 4.37037 10.6 4.31111C10.8667 4.22222 11.0852 4.04444 11.2556 3.77778C11.4259 3.51111 11.5111 3.20741 11.5111 2.86667C11.5111 2.43704 11.3704 2.07407 11.0889 1.77778C10.8074 1.48148 10.4741 1.33333 10.0889 1.33333C9.7037 1.33333 9.37037 1.46296 9.08889 1.72222C8.80741 1.98148 8.66667 2.2963 8.66667 2.66667ZM7.33333 13.3333V2.66667C7.33333 2.2963 7.1963 1.98148 6.92222 1.72222C6.64815 1.46296 6.31111 1.33333 5.91111 1.33333C5.52593 1.33333 5.18889 1.48148 4.9 1.77778C4.61111 2.07407 4.46667 2.43704 4.46667 2.86667C4.46667 3.20741 4.54815 3.50741 4.71111 3.76667C4.87407 4.02593 5.08889 4.2 5.35556 4.28889C5.53333 4.34815 5.66296 4.46296 5.74444 4.63333C5.82593 4.8037 5.83704 4.97037 5.77778 5.13333C5.7037 5.31111 5.58148 5.44444 5.41111 5.53333C5.24074 5.62222 5.06667 5.62963 4.88889 5.55556C4.53333 5.43704 4.22222 5.24074 3.95556 4.96667C3.68889 4.69259 3.48148 4.37778 3.33333 4.02222C2.81481 4.06667 2.35185 4.28519 1.94444 4.67778C1.53704 5.07037 1.33333 5.54815 1.33333 6.11111C1.33333 6.68889 1.52593 7.18519 1.91111 7.6C2.2963 8.01482 2.77037 8.22222 3.33333 8.22222C3.52593 8.22222 3.68519 8.28519 3.81111 8.41111C3.93704 8.53704 4 8.6963 4 8.88889C4 9.08148 3.93704 9.24074 3.81111 9.36667C3.68519 9.49259 3.52593 9.55556 3.33333 9.55556C2.99259 9.55556 2.66296 9.5037 2.34444 9.4C2.02593 9.2963 1.73333 9.15556 1.46667 8.97778C1.42222 9.0963 1.38889 9.22222 1.36667 9.35556C1.34444 9.48889 1.33333 9.62222 1.33333 9.75556C1.33333 10.3926 1.52963 10.9148 1.92222 11.3222C2.31481 11.7296 2.79259 11.9333 3.35556 11.9333C3.68148 11.9333 3.98889 11.8593 4.27778 11.7111C4.56667 11.563 4.80741 11.363 5 11.1111C5.11852 10.963 5.26667 10.8704 5.44444 10.8333C5.62222 10.7963 5.78519 10.837 5.93333 10.9556C6.08148 11.0741 6.17407 11.2222 6.21111 11.4C6.24815 11.5778 6.20741 11.7407 6.08889 11.8889C5.88148 12.1852 5.63333 12.4333 5.34444 12.6333C5.05556 12.8333 4.74074 12.9926 4.4 13.1111C4.42963 13.4667 4.58519 13.8148 4.86667 14.1556C5.14815 14.4963 5.48889 14.6667 5.88889 14.6667C6.28889 14.6667 6.62963 14.537 6.91111 14.2778C7.19259 14.0185 7.33333 13.7037 7.33333 13.3333Z"
        fill="#F2F8FF" />
</svg>