<svg
    className="rounded group-hover:bg-secondary-space-blue"
    width="16"
    height="16"
    viewBox="0 0 16 16"
    fill="none"
    xmlns="http://www.w3.org/2000/svg"
>
    <path
        d="M5.56768 5.15771C5.34656 4.94833 4.98937 4.94833 4.76825 5.15771L2.16584 7.62186C1.94472 7.83123 1.94472 8.16945 2.16584 8.37882L4.76825 10.843C4.98937 11.0523 5.34656 11.0523 5.56768 10.843C5.7888 10.6336 5.7888 10.2954 5.56768 10.086L3.36782 7.99765L5.56768 5.91467C5.78313 5.7053 5.78313 5.36171 5.56768 5.15771ZM10.4323 5.15771C10.2112 5.36708 10.2112 5.7053 10.4323 5.91467L12.6322 7.99765L10.4323 10.0806C10.2112 10.29 10.2112 10.6282 10.4323 10.8376C10.6534 11.047 11.0106 11.047 11.2318 10.8376L13.8342 8.37345C14.0553 8.16408 14.0553 7.82586 13.8342 7.61649L11.2318 5.15234C11.0163 4.94833 10.6534 4.94833 10.4323 5.15771ZM5.7321 8.53451C6.04394 8.53451 6.29908 8.29292 6.29908 7.99765C6.29908 7.70239 6.04394 7.4608 5.7321 7.4608C5.42027 7.4608 5.16513 7.70239 5.16513 7.99765C5.16513 8.29292 5.42027 8.53451 5.7321 8.53451ZM8 8.53451C8.31183 8.53451 8.56697 8.29292 8.56697 7.99765C8.56697 7.70239 8.31183 7.4608 8 7.4608C7.68816 7.4608 7.43303 7.70239 7.43303 7.99765C7.43303 8.29292 7.68816 8.53451 8 8.53451ZM10.2679 7.4608C9.95606 7.4608 9.70092 7.70239 9.70092 7.99765C9.70092 8.29292 9.95606 8.53451 10.2679 8.53451C10.5797 8.53451 10.8349 8.29292 10.8349 7.99765C10.8349 7.70239 10.5797 7.4608 10.2679 7.4608Z"
        fill="#CECECE"
    />
</svg>