<svg width="59" height="24" viewBox="0 0 59 24" fill="none" xmlns="http://www.w3.org/2000/svg">
    <path
        d="M4.64913 12.4164C3.72962 12.4164 2.83076 12.1438 2.06621 11.6329C1.30167 11.122 0.705776 10.396 0.353894 9.54644C0.00201288 8.69692 -0.0900533 7.76214 0.0893343 6.86029C0.268722 5.95845 0.711506 5.13006 1.3617 4.47986C2.01189 3.82967 2.84029 3.38689 3.74213 3.2075C4.64397 3.02811 5.57875 3.12018 6.42827 3.47206C7.27779 3.82394 8.00388 4.41983 8.51474 5.18438C9.02559 5.94892 9.29825 6.84778 9.29825 7.76729C9.29589 8.99959 8.80532 10.1807 7.93395 11.0521C7.06258 11.9235 5.88143 12.4141 4.64913 12.4164ZM4.6831 4.62913C4.0567 4.62878 3.44426 4.81421 2.92325 5.16196C2.40224 5.50971 1.99607 6.00417 1.75611 6.58279C1.51615 7.16141 1.45318 7.7982 1.57517 8.41261C1.69716 9.02702 1.99863 9.59146 2.44144 10.0345C2.88425 10.4776 3.44851 10.7794 4.06285 10.9017C4.67719 11.024 5.31402 10.9614 5.89277 10.7218C6.47153 10.4822 6.96622 10.0763 7.31426 9.55545C7.66231 9.03464 7.84808 8.42231 7.84808 7.7959C7.84785 7.3795 7.76554 6.96723 7.60587 6.58266C7.44619 6.19809 7.21228 5.84876 6.91751 5.55465C6.62273 5.26054 6.27288 5.02742 5.88795 4.86861C5.50302 4.7098 5.09056 4.62843 4.67416 4.62913H4.6831Z"
        fill="white" />
    <path
        d="M4.64913 23.9999C3.72962 23.9999 2.83076 23.7272 2.06621 23.2164C1.30167 22.7055 0.705776 21.9794 0.353894 21.1299C0.00201288 20.2804 -0.0900533 19.3456 0.0893343 18.4438C0.268722 17.5419 0.711506 16.7136 1.3617 16.0634C2.01189 15.4132 2.84029 14.9704 3.74213 14.791C4.64397 14.6116 5.57875 14.7037 6.42827 15.0556C7.27779 15.4074 8.00388 16.0033 8.51474 16.7679C9.02559 17.5324 9.29825 18.4313 9.29825 19.3508C9.29589 20.5831 8.80532 21.7642 7.93395 22.6356C7.06258 23.507 5.88143 23.9976 4.64913 23.9999ZM4.64913 16.2269C4.0322 16.2252 3.42861 16.4064 2.91472 16.7478C2.40083 17.0891 1.99973 17.5752 1.76217 18.1446C1.52461 18.7139 1.46127 19.341 1.58015 19.9463C1.69903 20.5517 1.9948 21.1082 2.43003 21.5455C2.86526 21.9827 3.42041 22.281 4.02522 22.4027C4.63004 22.5243 5.25735 22.4639 5.82779 22.2289C6.39824 21.994 6.88618 21.5951 7.22988 21.0828C7.57359 20.5705 7.75761 19.9677 7.75868 19.3508C7.75869 18.5249 7.43147 17.7327 6.84868 17.1476C6.26588 16.5624 5.47498 16.232 4.64913 16.2287V16.2269Z"
        fill="white" />
    <path
        d="M10.3406 3.84968C11.1514 3.84968 11.8087 3.19241 11.8087 2.38163C11.8087 1.57084 11.1514 0.913574 10.3406 0.913574C9.52983 0.913574 8.87256 1.57084 8.87256 2.38163C8.87256 3.19241 9.52983 3.84968 10.3406 3.84968Z"
        fill="#FFC500" />
    <path
        d="M16.3773 10.598C15.721 10.5873 15.3884 10.0616 15.3884 9.02445V0.81695C15.3935 0.711546 15.3771 0.606215 15.3402 0.507336C15.3034 0.408457 15.2468 0.318087 15.174 0.241705C15.1012 0.165323 15.0137 0.104517 14.9167 0.0629702C14.8197 0.0214233 14.7152 0 14.6097 0C14.5042 0 14.3997 0.0214233 14.3027 0.0629702C14.2057 0.104517 14.1182 0.165323 14.0454 0.241705C13.9726 0.318087 13.916 0.408457 13.8792 0.507336C13.8423 0.606215 13.8259 0.711546 13.831 0.81695V9.02445C13.831 10.9056 14.827 12.1215 16.3701 12.1215C16.5721 12.1215 16.7659 12.0412 16.9087 11.8984C17.0516 11.7555 17.1319 11.5618 17.1319 11.3597C17.1319 11.1577 17.0516 10.964 16.9087 10.8211C16.7659 10.6783 16.5721 10.598 16.3701 10.598H16.3773Z"
        fill="white" />
    <path
        d="M26.1175 2.94851C25.9752 2.94464 25.8348 2.98232 25.7135 3.05694C25.5922 3.13157 25.4952 3.2399 25.4345 3.36872L22.5306 9.7273L19.6875 3.42416C19.6312 3.28125 19.5324 3.15903 19.4045 3.07398C19.2766 2.98894 19.1258 2.94514 18.9722 2.94851C18.8486 2.94729 18.7265 2.97633 18.6166 3.03309C18.5068 3.08986 18.4125 3.17263 18.342 3.27419C18.2714 3.37575 18.2268 3.49302 18.212 3.61577C18.1972 3.73853 18.2126 3.86305 18.257 3.97847L18.2695 4.01781L21.7027 11.5279L21.5239 11.9106C21.0822 12.8816 20.5708 13.4019 20.0057 13.4591C19.8135 13.4817 19.6371 13.5765 19.5121 13.7243C19.3871 13.872 19.3228 14.0617 19.3324 14.2551C19.3419 14.4484 19.4245 14.6308 19.5635 14.7656C19.7024 14.9003 19.8873 14.9772 20.0808 14.9808C20.1668 14.9822 20.2527 14.9731 20.3365 14.954C21.4201 14.7573 22.2892 13.9419 22.9204 12.5329L26.7935 4.04106C26.8404 3.93639 26.8654 3.82318 26.8668 3.70847C26.8663 3.5089 26.7876 3.31748 26.6475 3.17536C26.5074 3.03325 26.3171 2.95179 26.1175 2.94851Z"
        fill="white" />
    <path
        d="M32.8549 2.88045C31.9255 2.86024 31.013 3.13025 30.2442 3.65292C30.2393 3.55089 30.2143 3.45083 30.1707 3.35846C30.1271 3.26608 30.0658 3.1832 29.9901 3.11454C29.9145 3.04588 29.8261 2.99279 29.7299 2.9583C29.6338 2.92381 29.5318 2.9086 29.4297 2.91353C29.3277 2.91846 29.2277 2.94344 29.1353 2.98704C29.0429 3.03064 28.96 3.09201 28.8914 3.16765C28.8227 3.24328 28.7696 3.33169 28.7351 3.42784C28.7006 3.52399 28.6854 3.62599 28.6904 3.72802V14.1653C28.6853 14.2707 28.7017 14.376 28.7386 14.4749C28.7754 14.5738 28.832 14.6642 28.9048 14.7406C28.9776 14.8169 29.0651 14.8777 29.1621 14.9193C29.2591 14.9608 29.3636 14.9823 29.4691 14.9823C29.5746 14.9823 29.679 14.9608 29.776 14.9193C29.873 14.8777 29.9606 14.8169 30.0334 14.7406C30.1062 14.6642 30.1628 14.5738 30.1996 14.4749C30.2365 14.376 30.2529 14.2707 30.2478 14.1653V11.4706C31.016 11.9913 31.9271 12.26 32.8549 12.2395C35.3833 12.2395 37.4414 10.1367 37.4414 7.55282C37.4424 6.3169 36.953 5.13109 36.0807 4.25552C35.6622 3.82237 35.1611 3.47751 34.607 3.24133C34.053 3.00515 33.4572 2.88244 32.8549 2.88045ZM32.8549 4.40394C34.4875 4.40394 35.8661 5.84516 35.8661 7.55282C35.8661 9.26048 34.4875 10.7178 32.8549 10.7178C31.7105 10.7178 30.7002 10.1689 30.2478 9.31413V5.82192C30.6966 4.95825 31.7087 4.40394 32.8549 4.40394Z"
        fill="white" />
    <path
        d="M44.0075 2.88039C42.9906 2.85532 41.9909 3.14646 41.1465 3.71366V0.816897C41.1465 0.610602 41.0645 0.412757 40.9187 0.266885C40.7728 0.121013 40.575 0.0390625 40.3687 0.0390625C40.1624 0.0390625 39.9645 0.121013 39.8186 0.266885C39.6728 0.412757 39.5908 0.610602 39.5908 0.816897V11.3436C39.5908 11.5499 39.6728 11.7477 39.8186 11.8936C39.9645 12.0395 40.1624 12.1214 40.3687 12.1214C40.575 12.1214 40.7728 12.0395 40.9187 11.8936C41.0645 11.7477 41.1465 11.5499 41.1465 11.3436V5.84511C41.6275 4.96714 42.7039 4.40388 43.9235 4.40388C45.6669 4.40388 46.4447 5.23893 46.4447 7.11289V11.3436C46.4543 11.5437 46.5405 11.7324 46.6855 11.8706C46.8305 12.0088 47.0231 12.0859 47.2234 12.0859C47.4237 12.0859 47.6164 12.0088 47.7614 11.8706C47.9063 11.7324 47.9926 11.5437 48.0022 11.3436V7.05209C48.0022 4.4754 46.4715 2.88039 44.0075 2.88039Z"
        fill="white" />
    <path
        d="M58.4718 10.8681L55.3516 7.54933L58.4718 4.21984L58.4969 4.19302L58.5237 4.15368C58.6208 4.02644 58.6724 3.87029 58.6703 3.71023C58.6703 3.50851 58.5903 3.31503 58.4478 3.17223C58.3054 3.02942 58.1121 2.94896 57.9104 2.94849C57.7977 2.9497 57.6867 2.97525 57.5848 3.0234C57.483 3.07155 57.3927 3.14115 57.3203 3.22743L54.3216 6.42639L51.3193 3.22743C51.2472 3.14129 51.1572 3.07176 51.0557 3.02361C50.9542 2.97546 50.8434 2.94984 50.731 2.94849C50.631 2.94849 50.532 2.96819 50.4395 3.00647C50.3471 3.04475 50.2631 3.10086 50.1924 3.1716C50.1217 3.24233 50.0656 3.3263 50.0273 3.41872C49.989 3.51114 49.9693 3.61019 49.9693 3.71023C49.9672 3.87029 50.0188 4.02644 50.1159 4.15368L50.1427 4.19481L53.2863 7.54933L50.1892 10.8484L50.1606 10.8842C50.047 11.0161 49.9837 11.184 49.9818 11.358C49.9818 11.5601 50.0621 11.7538 50.2049 11.8967C50.3478 12.0395 50.5415 12.1198 50.7436 12.1198C50.8396 12.1215 50.935 12.1039 51.0241 12.068C51.1132 12.032 51.1942 11.9785 51.2621 11.9106L54.3144 8.65976L57.3543 11.9016L57.365 11.9106C57.4329 11.9785 57.5139 12.032 57.603 12.068C57.6921 12.1039 57.7875 12.1215 57.8835 12.1198C58.0856 12.1198 58.2793 12.0395 58.4222 11.8967C58.565 11.7538 58.6453 11.5601 58.6453 11.358C58.6434 11.184 58.5801 11.0161 58.4665 10.8842L58.4718 10.8681Z"
        fill="white" />
</svg>