<svg
    width="14"
    height="10"
    viewBox="0 0 14 10"
    fill="none"
    xmlns="http://www.w3.org/2000/svg"
>
    <path
        d="M4.99998 5.00004C6.28665 5.00004 7.33331 3.95337 7.33331 2.66671C7.33331 1.38004 6.28665 0.333374 4.99998 0.333374C3.71331 0.333374 2.66665 1.38004 2.66665 2.66671C2.66665 3.95337 3.71331 5.00004 4.99998 5.00004ZM4.99998 1.66671C5.55331 1.66671 5.99998 2.11337 5.99998 2.66671C5.99998 3.22004 5.55331 3.66671 4.99998 3.66671C4.44665 3.66671 3.99998 3.22004 3.99998 2.66671C3.99998 2.11337 4.44665 1.66671 4.99998 1.66671ZM4.99998 6.16671C3.43998 6.16671 0.333313 6.94671 0.333313 8.50004V9.00004C0.333313 9.36671 0.633313 9.66671 0.99998 9.66671H8.99998C9.36665 9.66671 9.66665 9.36671 9.66665 9.00004V8.50004C9.66665 6.94671 6.55998 6.16671 4.99998 6.16671ZM1.89331 8.33337C2.45331 7.94671 3.80665 7.50004 4.99998 7.50004C6.19331 7.50004 7.54665 7.94671 8.10665 8.33337H1.89331ZM9.69331 6.20671C10.4666 6.76671 11 7.51337 11 8.50004V9.66671H13C13.3666 9.66671 13.6666 9.36671 13.6666 9.00004V8.50004C13.6666 7.15337 11.3333 6.38671 9.69331 6.20671ZM8.99998 5.00004C10.2866 5.00004 11.3333 3.95337 11.3333 2.66671C11.3333 1.38004 10.2866 0.333374 8.99998 0.333374C8.63998 0.333374 8.30665 0.420041 7.99998 0.566707C8.41998 1.16004 8.66665 1.88671 8.66665 2.66671C8.66665 3.44671 8.41998 4.17337 7.99998 4.76671C8.30665 4.91337 8.63998 5.00004 8.99998 5.00004Z"
        fill="#595E68"
    />
</svg>