<svg width="16" height="16" viewBox="0 0 16 16" fill="none" xmlns="http://www.w3.org/2000/svg">
    <path
        d="M8 3.41333C5.27273 3.41333 2.94364 5.22278 2 7.77697C2.94364 10.3311 5.27273 12.1406 8 12.1406C10.7273 12.1406 13.0564 10.3311 14 7.77697C13.0564 5.22278 10.7273 3.41333 8 3.41333ZM8 10.6861C6.49455 10.6861 5.27273 9.38278 5.27273 7.77697C5.27273 6.17115 6.49455 4.86788 8 4.86788C9.50545 4.86788 10.7273 6.17115 10.7273 7.77697C10.7273 9.38278 9.50545 10.6861 8 10.6861ZM8 6.03151C7.09455 6.03151 6.36364 6.81115 6.36364 7.77697C6.36364 8.74278 7.09455 9.52242 8 9.52242C8.90545 9.52242 9.63636 8.74278 9.63636 7.77697C9.63636 6.81115 8.90545 6.03151 8 6.03151Z"
        fill="white"
    />
</svg>