<svg
    className="rounded-full group-hover:bg-secondary-space-blue"
    width="16"
    height="16"
    viewBox="0 0 16 16"
    fill="none"
    xmlns="http://www.w3.org/2000/svg"
>
    <path
        d="M10.3333 9.33332H9.80666L9.62 9.15332C10.42 8.21999 10.8333 6.94666 10.6067 5.59332C10.2933 3.73999 8.74666 2.25999 6.88 2.03332C4.06 1.68666 1.68666 4.05999 2.03333 6.87999C2.26 8.74666 3.74 10.2933 5.59333 10.6067C6.94666 10.8333 8.22 10.42 9.15333 9.61999L9.33333 9.80666V10.3333L12.1667 13.1667C12.44 13.44 12.8867 13.44 13.16 13.1667C13.4333 12.8933 13.4333 12.4467 13.16 12.1733L10.3333 9.33332ZM6.33333 9.33332C4.67333 9.33332 3.33333 7.99332 3.33333 6.33332C3.33333 4.67332 4.67333 3.33332 6.33333 3.33332C7.99333 3.33332 9.33333 4.67332 9.33333 6.33332C9.33333 7.99332 7.99333 9.33332 6.33333 9.33332Z"
        fill="#CECECE"
    />
</svg>