<svg width="24" height="24" viewBox="0 0 24 24" fill="none" xmlns="http://www.w3.org/2000/svg">
    <path
        d="M15.7252 14.3182H14.9842L14.7216 14.065C15.8471 12.7518 16.4287 10.9603 16.1098 9.05624C15.6689 6.44869 13.4928 4.36639 10.8665 4.04749C6.89891 3.55974 3.55974 6.89891 4.04749 10.8665C4.36639 13.4928 6.44869 15.6689 9.05624 16.1098C10.9603 16.4287 12.7518 15.8471 14.065 14.7216L14.3182 14.9842V15.7252L18.3046 19.7116C18.6892 20.0961 19.3176 20.0961 19.7022 19.7116C20.0868 19.327 20.0868 18.6986 19.7022 18.314L15.7252 14.3182ZM10.0974 14.3182C7.76184 14.3182 5.87653 12.4329 5.87653 10.0974C5.87653 7.76184 7.76184 5.87653 10.0974 5.87653C12.4329 5.87653 14.3182 7.76184 14.3182 10.0974C14.3182 12.4329 12.4329 14.3182 10.0974 14.3182Z"
        fill="#CECECE"
    />
</svg>