<svg
    className="mr-2"
    width="16"
    height="12"
    viewBox="0 0 16 12"
    fill="none"
    xmlns="http://www.w3.org/2000/svg"
>
    <path
        d="M10.1818 5.81818C11.7891 5.81818 13.0909 4.51636 13.0909 2.90909C13.0909 1.30182 11.7891 0 10.1818 0C8.57455 0 7.27273 1.30182 7.27273 2.90909C7.27273 4.51636 8.57455 5.81818 10.1818 5.81818ZM3.63636 4.36364V2.90909C3.63636 2.50909 3.30909 2.18182 2.90909 2.18182C2.50909 2.18182 2.18182 2.50909 2.18182 2.90909V4.36364H0.727273C0.327273 4.36364 0 4.69091 0 5.09091C0 5.49091 0.327273 5.81818 0.727273 5.81818H2.18182V7.27273C2.18182 7.67273 2.50909 8 2.90909 8C3.30909 8 3.63636 7.67273 3.63636 7.27273V5.81818H5.09091C5.49091 5.81818 5.81818 5.49091 5.81818 5.09091C5.81818 4.69091 5.49091 4.36364 5.09091 4.36364H3.63636ZM10.1818 7.27273C8.24 7.27273 4.36364 8.24727 4.36364 10.1818V10.9091C4.36364 11.3091 4.69091 11.6364 5.09091 11.6364H15.2727C15.6727 11.6364 16 11.3091 16 10.9091V10.1818C16 8.24727 12.1236 7.27273 10.1818 7.27273Z"
        fill="#CECECE"
    />
</svg>