<svg width="16" height="16" viewBox="0 0 16 16" fill="none" xmlns="http://www.w3.org/2000/svg">
    <path
        d="M8 4.98136C9.50545 4.98136 10.7273 6.20318 10.7273 7.70864C10.7273 7.98682 10.6727 8.25409 10.5964 8.505L12.2655 10.1741C13.0236 9.50318 13.6236 8.66318 14 7.70318C13.0564 5.31409 10.7273 3.61773 8 3.61773C7.30727 3.61773 6.64182 3.72682 6.01455 3.92864L7.19818 5.11227C7.45455 5.03591 7.72182 4.98136 8 4.98136ZM2.93273 3.15955C2.72 3.37227 2.72 3.71591 2.93273 3.92864L4.00727 5.00318C3.12364 5.70682 2.42 6.63409 2 7.70864C2.94364 10.1032 5.27273 11.7995 8 11.7995C8.82909 11.7995 9.62 11.6359 10.3509 11.3523L11.8345 12.8359C12.0473 13.0486 12.3909 13.0486 12.6036 12.8359C12.8164 12.6232 12.8164 12.2795 12.6036 12.0668L3.70727 3.15955C3.49455 2.94682 3.14545 2.94682 2.93273 3.15955ZM8 10.4359C6.49455 10.4359 5.27273 9.21409 5.27273 7.70864C5.27273 7.28864 5.37091 6.89045 5.54 6.54136L6.39636 7.39773C6.38 7.49591 6.36364 7.59955 6.36364 7.70864C6.36364 8.61409 7.09455 9.345 8 9.345C8.10909 9.345 8.20727 9.32864 8.31091 9.30682L9.16727 10.1632C8.81273 10.3377 8.42 10.4359 8 10.4359ZM9.62 7.52864C9.53818 6.765 8.93818 6.17045 8.18 6.08864L9.62 7.52864Z"
        fill="white"
    />
</svg>