<svg width="12" height="24" viewBox="0 0 12 24" fill="none" xmlns="http://www.w3.org/2000/svg">
    <path
        d="M4.64913 12.4165C3.72962 12.4165 2.83076 12.1439 2.06621 11.633C1.30167 11.1222 0.705776 10.3961 0.353894 9.54656C0.00201288 8.69704 -0.0900533 7.76226 0.0893343 6.86042C0.268722 5.95857 0.711506 5.13018 1.3617 4.47999C2.01189 3.82979 2.84029 3.38701 3.74213 3.20762C4.64397 3.02823 5.57875 3.1203 6.42827 3.47218C7.27779 3.82406 8.00388 4.41995 8.51474 5.1845C9.02559 5.94904 9.29825 6.84791 9.29825 7.76742C9.29589 8.99971 8.80532 10.1809 7.93395 11.0522C7.06258 11.9236 5.88143 12.4142 4.64913 12.4165ZM4.6831 4.62925C4.0567 4.6289 3.44426 4.81433 2.92325 5.16208C2.40224 5.50984 1.99607 6.00429 1.75611 6.58291C1.51615 7.16153 1.45318 7.79832 1.57517 8.41274C1.69716 9.02715 1.99863 9.59158 2.44144 10.0346C2.88425 10.4777 3.44851 10.7795 4.06285 10.9018C4.67719 11.0242 5.31402 10.9615 5.89277 10.7219C6.47153 10.4823 6.96622 10.0764 7.31426 9.55557C7.66231 9.03476 7.84808 8.42243 7.84808 7.79602C7.84785 7.37962 7.76554 6.96735 7.60587 6.58278C7.44619 6.19821 7.21228 5.84888 6.91751 5.55477C6.62273 5.26066 6.27288 5.02754 5.88795 4.86873C5.50302 4.70993 5.09056 4.62855 4.67416 4.62925H4.6831Z"
        fill="white" />
    <path
        d="M4.64913 24C3.72962 24 2.83076 23.7274 2.06621 23.2165C1.30167 22.7057 0.705776 21.9796 0.353894 21.1301C0.00201288 20.2805 -0.0900533 19.3458 0.0893343 18.4439C0.268722 17.5421 0.711506 16.7137 1.3617 16.0635C2.01189 15.4133 2.84029 14.9705 3.74213 14.7911C4.64397 14.6117 5.57875 14.7038 6.42827 15.0557C7.27779 15.4076 8.00388 16.0034 8.51474 16.768C9.02559 17.5325 9.29825 18.4314 9.29825 19.3509C9.29589 20.5832 8.80532 21.7644 7.93395 22.6357C7.06258 23.5071 5.88143 23.9977 4.64913 24ZM4.64913 16.2271C4.0322 16.2253 3.42861 16.4065 2.91472 16.7479C2.40083 17.0892 1.99973 17.5754 1.76217 18.1447C1.52461 18.7141 1.46127 19.3411 1.58015 19.9465C1.69903 20.5518 1.9948 21.1083 2.43003 21.5456C2.86526 21.9828 3.42041 22.2811 4.02522 22.4028C4.63004 22.5244 5.25735 22.464 5.82779 22.229C6.39824 21.9941 6.88618 21.5952 7.22988 21.0829C7.57359 20.5706 7.75761 19.9678 7.75868 19.3509C7.75869 18.5251 7.43147 17.7328 6.84868 17.1477C6.26588 16.5625 5.47498 16.2322 4.64913 16.2288V16.2271Z"
        fill="white" />
    <path
        d="M10.3406 3.84968C11.1514 3.84968 11.8087 3.19241 11.8087 2.38163C11.8087 1.57084 11.1514 0.913574 10.3406 0.913574C9.52983 0.913574 8.87256 1.57084 8.87256 2.38163C8.87256 3.19241 9.52983 3.84968 10.3406 3.84968Z"
        fill="#FFC500" />
</svg>