<svg
    className="h-5 w-5 rounded-full border border-transparent"
    width="16"
    height="16"
    viewBox="0 0 16 16"
    fill="none"
    xmlns="http://www.w3.org/2000/svg"
>
    <path
        d="M2.66667 10H13.3333C13.7 10 14 9.70001 14 9.33334C14 8.96668 13.7 8.66668 13.3333 8.66668H2.66667C2.3 8.66668 2 8.96668 2 9.33334C2 9.70001 2.3 10 2.66667 10ZM2.66667 12.6667H13.3333C13.7 12.6667 14 12.3667 14 12C14 11.6333 13.7 11.3333 13.3333 11.3333H2.66667C2.3 11.3333 2 11.6333 2 12C2 12.3667 2.3 12.6667 2.66667 12.6667ZM2.66667 7.33334H13.3333C13.7 7.33334 14 7.03334 14 6.66668C14 6.30001 13.7 6.00001 13.3333 6.00001H2.66667C2.3 6.00001 2 6.30001 2 6.66668C2 7.03334 2.3 7.33334 2.66667 7.33334ZM2 4.00001C2 4.36668 2.3 4.66668 2.66667 4.66668H13.3333C13.7 4.66668 14 4.36668 14 4.00001C14 3.63334 13.7 3.33334 13.3333 3.33334H2.66667C2.3 3.33334 2 3.63334 2 4.00001Z"
        fill="#CECECE"
    />
</svg>