<svg width="576" height="178" viewBox="0 0 576 178" fill="none" xmlns="http://www.w3.org/2000/svg">
    <path
        d="M505.427 169.209C489.339 169.209 476.299 156.18 476.299 140.105C476.299 124.029 489.339 111 505.427 111C521.515 111 534.554 124.029 534.554 140.105C534.536 156.171 521.506 169.191 505.427 169.209ZM505.427 120.605C494.65 120.605 485.912 129.337 485.912 140.105C485.912 150.872 494.65 159.604 505.427 159.604C516.203 159.604 524.941 150.872 524.941 140.105C524.932 129.346 516.203 120.623 505.427 120.605Z"
        fill="#0058D8" />
    <path
        d="M410.44 87.1182C394.352 87.1182 381.312 74.0888 381.312 58.0137C381.312 41.9386 394.352 28.9092 410.44 28.9092C426.528 28.9092 439.568 41.9386 439.568 58.0137C439.55 74.0798 426.519 87.1002 410.44 87.1182ZM410.44 38.5146C399.664 38.5146 390.926 47.2459 390.926 58.0137C390.926 68.7815 399.664 77.5128 410.44 77.5128C421.217 77.5128 429.955 68.7815 429.955 58.0137C429.946 47.2549 421.217 38.5326 410.44 38.5146Z"
        fill="#3FA9F5" />
    <path d="M481.719 -18.0285L426.496 34.5546L435.206 43.6869L490.429 -8.89611L481.719 -18.0285Z"
        fill="#0058D8" />
    <path d="M434.165 69L426 78.623L484.272 127.988L492.438 118.365L434.165 69Z" fill="#0058D8" />
    <path d="M576 51.7062L433.869 51.7062V64.3211H576V51.7062Z" fill="#0058D8" />
    <path
        d="M504.686 0.0569382C488.599 0.0569382 475.559 -12.9725 475.559 -29.0476C475.559 -45.1227 488.599 -58.1521 504.686 -58.1521C520.774 -58.1521 533.814 -45.1227 533.814 -29.0476C533.796 -12.9815 520.765 0.0389175 504.686 0.0569382ZM504.686 -48.5467C493.91 -48.5467 485.172 -39.8154 485.172 -29.0476C485.172 -18.2798 493.91 -9.54843 504.686 -9.54843C515.463 -9.54843 524.201 -18.2798 524.201 -29.0476C524.192 -39.8063 515.463 -48.5287 504.686 -48.5467Z"
        fill="#0058D8" />
    <path
        d="M314.418 0.219074C298.33 0.219074 285.29 -12.8104 285.29 -28.8855C285.29 -44.9605 298.33 -57.99 314.418 -57.99C330.506 -57.99 343.546 -44.9605 343.546 -28.8855C343.528 -12.8194 330.497 0.201054 314.418 0.219074ZM314.418 -48.3846C303.641 -48.3846 294.903 -39.6532 294.912 -28.8855C294.912 -18.1177 303.651 -9.38632 314.427 -9.38632C325.203 -9.38632 333.933 -18.1177 333.933 -28.8855C333.924 -39.6442 325.194 -48.3666 314.418 -48.3846Z"
        fill="#0058D8" />
    <path
        d="M314.418 87.2804C298.33 87.2804 285.29 74.2509 285.29 58.1758C285.29 42.1007 298.33 29.0713 314.418 29.0713C330.506 29.0713 343.546 42.1007 343.546 58.1758C343.528 74.2419 330.497 87.2623 314.418 87.2804ZM314.418 38.6767C303.641 38.6767 294.903 47.408 294.912 58.1758C294.912 68.9436 303.651 77.675 314.427 77.675C325.203 77.675 333.933 68.9436 333.933 58.1758C333.924 47.417 325.194 38.6947 314.418 38.6767Z"
        fill="#00C6B1" />
    <path
        d="M409.944 87.2804C393.856 87.2804 380.816 74.2509 380.816 58.1758C380.816 42.1007 393.856 29.0713 409.944 29.0713C426.032 29.0713 439.072 42.1007 439.072 58.1758C439.054 74.2419 426.023 87.2623 409.944 87.2804ZM409.944 38.6767C399.168 38.6767 390.429 47.408 390.429 58.1758C390.429 68.9436 399.168 77.675 409.944 77.675C420.721 77.675 429.459 68.9436 429.459 58.1758C429.45 47.417 420.721 38.6947 409.944 38.6767Z"
        fill="#151C2D" />
    <path
        d="M219.099 168.989C203.011 168.989 189.971 155.96 189.971 139.885C189.971 123.81 203.011 110.78 219.099 110.78C235.186 110.78 248.226 123.81 248.226 139.885C248.208 155.951 235.177 168.971 219.099 168.989ZM219.099 120.386C208.322 120.386 199.593 129.117 199.593 139.885C199.593 150.653 208.331 159.375 219.108 159.375C229.884 159.375 238.613 150.644 238.613 139.885C238.604 129.126 229.875 120.404 219.099 120.386Z"
        fill="#0058D8" />
    <path
        d="M114.128 169.209C98.0399 169.209 85 156.18 85 140.105C85 124.029 98.0399 111 114.128 111C130.216 111 143.256 124.029 143.256 140.105C143.238 156.171 130.207 169.191 114.128 169.209ZM114.128 120.605C103.351 120.605 94.6131 129.337 94.6221 140.105C94.6221 150.872 103.36 159.604 114.137 159.604C124.913 159.604 133.643 150.872 133.643 140.105C133.634 129.346 124.904 120.623 114.128 120.605Z"
        fill="#0058D8" />
    <path d="M146.99 -95.889L138.789 -86.298L290.806 43.4785L299.007 33.8875L146.99 -95.889Z"
        fill="#00C6B1" />
    <path d="M100.407 -17.8676L45.1836 34.7155L53.8933 43.8478L109.116 -8.73522L100.407 -17.8676Z"
        fill="#0058D8" />
    <path d="M49.924 65.9999L41 74.9238L90.063 123.909L98.987 114.985L49.924 65.9999Z"
        fill="#0058D8" />
    <path d="M225.411 80.9729H212.786V117.079H225.411V80.9729Z" fill="#0058D8" />
    <path d="M291.602 133.568H241.923V146.183H291.602V133.568Z" fill="#0058D8" />
    <path d="M390.772 70.8217L331.27 125.974L339.856 135.222L399.358 80.0702L390.772 70.8217Z"
        fill="#151C2D" />
    <path
        d="M123.374 0.219074C107.286 0.219074 94.2461 -12.8104 94.2461 -28.8855C94.2461 -44.9605 107.286 -57.99 123.374 -57.99C139.462 -57.99 152.502 -44.9605 152.502 -28.8855C152.484 -12.8194 139.453 0.201054 123.374 0.219074ZM123.374 -48.3846C112.598 -48.3846 103.859 -39.6532 103.868 -28.8855C103.868 -18.1177 112.607 -9.38632 123.383 -9.38632C134.159 -9.38632 142.889 -18.1177 142.889 -28.8855C142.88 -39.6442 134.15 -48.3666 123.374 -48.3846Z"
        fill="#0058D8" />
    <path
        d="M219.099 87.2804C203.011 87.2804 189.971 74.2509 189.971 58.1758C189.971 42.1007 203.011 29.0713 219.099 29.0713C235.186 29.0713 248.226 42.1007 248.226 58.1758C248.208 74.2419 235.177 87.2623 219.099 87.2804ZM219.099 38.6767C208.322 38.6767 199.584 47.408 199.584 58.1758C199.584 68.9436 208.322 77.675 219.099 77.675C229.875 77.675 238.613 68.9436 238.613 58.1758C238.604 47.417 229.875 38.6947 219.099 38.6767Z"
        fill="#FFC500" />
    <path d="M194.688 51.8594L52.5566 51.8594V64.4743H194.688V51.8594Z" fill="#FFC500" />
    <path
        d="M29.1278 87.2804C13.0399 87.2804 0 74.2509 0 58.1758C0 42.1007 13.0399 29.0713 29.1278 29.0713C45.2157 29.0713 58.2556 42.1007 58.2556 58.1758C58.2376 74.2419 45.2067 87.2623 29.1278 87.2804ZM29.1278 38.6767C18.3514 38.6767 9.61308 47.408 9.62209 58.1758C9.62209 68.9436 18.3604 77.675 29.1368 77.675C39.9132 77.675 48.6425 68.9436 48.6425 58.1758C48.6335 47.417 39.9042 38.6947 29.1278 38.6767Z"
        fill="#FFC500" />
    <path
        d="M314.418 168.989C298.33 168.989 285.29 155.96 285.29 139.885C285.29 123.81 298.33 110.78 314.418 110.78C330.506 110.78 343.546 123.81 343.546 139.885C343.528 155.951 330.497 168.971 314.418 168.989ZM314.418 120.386C303.641 120.386 294.903 129.117 294.912 139.885C294.912 150.653 303.651 159.384 314.427 159.384C325.203 159.384 333.933 150.653 333.933 139.885C333.924 129.126 325.194 120.404 314.418 120.386Z"
        fill="#151C2D" />
</svg>