<svg width="83" height="34" viewBox="0 0 83 34" fill="none" xmlns="http://www.w3.org/2000/svg">
<path d="M13.9945 11.6908V11.6906C13.9945 10.4011 13.6098 9.14065 12.8892 8.06862C12.1686 6.9966 11.1445 6.16117 9.94637 5.66787C8.74828 5.17457 7.42998 5.04551 6.15814 5.29698C4.88629 5.54846 3.71793 6.16919 2.80083 7.08081C1.88373 7.99243 1.25909 9.154 1.00603 10.4187C0.752957 11.6833 0.882845 12.9942 1.37924 14.1854C1.87563 15.3767 2.71619 16.3947 3.79452 17.1109C4.87283 17.8271 6.14051 18.2094 7.43726 18.2094V18.0894L7.43749 18.2094C9.17526 18.206 10.8411 17.5184 12.0701 16.2967C13.2991 15.075 13.9912 13.4188 13.9945 11.6908ZM7.4843 7.49136C8.04105 7.492 8.59232 7.60092 9.10702 7.81199C9.62547 8.02461 10.0966 8.3367 10.4936 8.7304C10.8905 9.12409 11.2055 9.59165 11.4205 10.1063C11.6355 10.621 11.7463 11.1728 11.7466 11.73C11.7466 12.5682 11.4965 13.3877 11.0279 14.0847C10.5592 14.7818 9.89306 15.3252 9.11355 15.646C8.33404 15.9668 7.47628 16.0506 6.64879 15.8869C5.8213 15.7231 5.06137 15.319 4.46508 14.7259C3.86879 14.1329 3.46291 13.3774 3.29869 12.5552C3.13446 11.733 3.21922 10.8808 3.54229 10.1065C3.86536 9.3321 4.41226 8.67025 5.11392 8.20471C5.81426 7.74005 6.63734 7.49183 7.47941 7.49136H7.4843ZM7.47212 7.49136C7.47616 7.49135 7.48019 7.49136 7.48423 7.49136H7.47212Z" fill="white" stroke="white" stroke-width="0.24"/>
<path d="M13.9945 26.6014V26.6012C13.9945 25.3117 13.6098 24.0513 12.8892 22.9793C12.1686 21.9072 11.1445 21.0718 9.94637 20.5785C8.74828 20.0852 7.42998 19.9562 6.15814 20.2076C4.88629 20.4591 3.71793 21.0798 2.80083 21.9915C1.88373 22.9031 1.25909 24.0646 1.00603 25.3293C0.752957 26.594 0.882845 27.9048 1.37924 29.0961C1.87563 30.2873 2.71619 31.3053 3.79452 32.0216C4.87283 32.7378 6.14051 33.12 7.43726 33.12V33L7.43749 33.12C9.17526 33.1167 10.8411 32.429 12.0701 31.2073C13.2991 29.9856 13.9912 28.3295 13.9945 26.6014ZM5.10188 23.1187C5.76041 22.6839 6.52843 22.4431 7.31726 22.423V22.4237L7.43678 22.4242C8.54875 22.4286 9.61352 22.8708 10.398 23.6537C11.1824 24.4366 11.6227 25.4964 11.6228 26.601C11.6214 27.4262 11.3737 28.2325 10.9111 28.9179C10.4486 29.6033 9.79177 30.137 9.02379 30.4514C8.25581 30.7658 7.41122 30.8468 6.59692 30.684C5.78262 30.5211 5.03529 30.1219 4.44945 29.5369C3.86362 28.9519 3.4656 28.2074 3.30562 27.3976C3.14565 26.5879 3.23088 25.7491 3.55058 24.9875C3.87028 24.2258 4.41011 23.5755 5.10188 23.1187Z" fill="white" stroke="white" stroke-width="0.24"/>
<path d="M15.318 6.42341C16.5089 6.42341 17.4756 5.46352 17.4756 4.27787C17.4756 3.09221 16.5089 2.13232 15.318 2.13232C14.127 2.13232 13.1603 3.09221 13.1603 4.27787C13.1603 5.46352 14.127 6.42341 15.318 6.42341Z" fill="#FFC100" stroke="#FFC500" stroke-width="0.25"/>
<path d="M24.4969 15.8085C24.2793 15.5922 23.9854 15.4696 23.6784 15.4666L23.6784 15.4665C23.2614 15.4597 22.958 15.2937 22.7525 14.9692C22.5415 14.6361 22.4273 14.1252 22.4273 13.4207V2.12722C22.4346 1.96681 22.4093 1.80658 22.3529 1.65614C22.2961 1.50477 22.2091 1.36647 22.097 1.24961C21.9849 1.13276 21.8502 1.03978 21.701 0.976259C21.5518 0.912742 21.3913 0.88 21.229 0.88C21.0668 0.88 20.9062 0.912742 20.757 0.976259C20.6078 1.03978 20.4731 1.13276 20.361 1.24961C20.249 1.36647 20.1619 1.50477 20.1052 1.65614C20.0487 1.80658 20.0234 1.96681 20.0308 2.12722V13.4207C20.0308 14.7356 20.3809 15.8306 21.0148 16.5993C21.6506 17.3703 22.5642 17.8033 23.6665 17.8033C23.9778 17.8033 24.2765 17.6804 24.4969 17.4614C24.7173 17.2423 24.8412 16.945 24.8412 16.6349C24.8412 16.3248 24.7173 16.0275 24.4969 15.8085Z" fill="white" stroke="white" stroke-width="0.24"/>
<path d="M36.1084 5.58491L36.1077 5.58625L32.1967 14.099L28.3698 5.66565C28.2826 5.44723 28.1305 5.26058 27.9338 5.13058C27.7368 5.00038 27.5046 4.93321 27.2683 4.93798C27.0783 4.93642 26.8907 4.98091 26.7219 5.06766C26.5524 5.1547 26.4069 5.28165 26.298 5.43751C26.1891 5.59337 26.1202 5.7734 26.0973 5.9619C26.0746 6.14921 26.0979 6.33917 26.1654 6.51543L26.1817 6.56629L26.1839 6.57323L26.187 6.57985L30.9173 16.8657L30.6935 17.3419L30.6929 17.343C30.0841 18.6734 29.4014 19.333 28.688 19.4048L28.688 19.4048L28.6861 19.405C28.39 19.4397 28.1179 19.5848 27.9251 19.8114C27.7323 20.0379 27.6331 20.329 27.6479 20.6256C27.6626 20.9223 27.7901 21.2022 28.0044 21.4087C28.2187 21.6152 28.5037 21.7331 28.8018 21.7386L28.8022 21.7386C28.9299 21.7405 29.0574 21.7274 29.182 21.6993C30.7342 21.4182 31.9622 20.2575 32.845 18.299C32.845 18.2989 32.8451 18.2988 32.8451 18.2987L38.2075 6.61175L38.2078 6.61109C38.2797 6.45198 38.3178 6.27985 38.32 6.1054L38.32 6.10368C38.3193 5.79734 38.1977 5.50364 37.9815 5.28571C37.7655 5.06795 37.4724 4.9432 37.1652 4.93802C36.9451 4.93219 36.7281 4.99013 36.5405 5.10485C36.3527 5.21968 36.2025 5.38647 36.1084 5.58491Z" fill="white" stroke="white" stroke-width="0.24"/>
<path d="M46.493 4.84459C45.2459 4.81785 44.0202 5.15921 42.97 5.82343C42.9508 5.73653 42.9218 5.65185 42.8834 5.57102C42.8162 5.42959 42.7217 5.30274 42.6053 5.19769C42.4889 5.09264 42.3529 5.01145 42.205 4.95871C42.0571 4.90598 41.9002 4.88272 41.7433 4.89026C41.5863 4.8978 41.4324 4.93598 41.2903 5.00266C41.1482 5.06934 41.0207 5.16321 40.915 5.27895C40.8093 5.39469 40.7275 5.53003 40.6744 5.67726C40.6216 5.82355 40.5981 5.97871 40.6053 6.13398V20.4936C40.5979 20.654 40.6232 20.8143 40.6796 20.9647C40.7364 21.1161 40.8235 21.2544 40.9355 21.3712C41.0476 21.4881 41.1823 21.5811 41.3315 21.6446C41.4807 21.7081 41.6412 21.7408 41.8035 21.7408C41.9657 21.7408 42.1263 21.7081 42.2755 21.6446C42.4247 21.5811 42.5594 21.4881 42.6715 21.3712C42.7835 21.2544 42.8706 21.1161 42.9274 20.9647C42.9838 20.8143 43.0091 20.654 43.0017 20.4936V17.0084C44.045 17.659 45.2585 17.9927 46.4928 17.9659C50.0611 17.9651 52.9621 15.0158 52.9621 11.3955C52.9621 11.3954 52.9621 11.3954 52.9621 11.3954H52.8421C52.8434 9.69433 52.1658 8.06224 50.958 6.85716M46.493 4.84459L50.958 6.85716M46.493 4.84459C47.3425 4.84752 48.1829 5.01964 48.9644 5.35079C49.746 5.68197 50.4529 6.16551 51.0434 6.77287M50.958 6.85716L51.0441 6.77352C51.0438 6.7733 51.0436 6.77309 51.0434 6.77287M50.958 6.85716L51.0428 6.77221C51.043 6.77243 51.0432 6.77265 51.0434 6.77287" fill="white" stroke="white" stroke-width="0.24"/>
<path d="M65.1881 16.6129H65.188L65.1882 16.6187C65.203 16.9251 65.3359 17.2139 65.559 17.4253C65.7821 17.6367 66.0784 17.7545 66.3864 17.7545C66.6943 17.7545 66.9906 17.6367 67.2137 17.4253C67.4368 17.2139 67.5697 16.9251 67.5845 16.6187L67.5846 16.6187V16.6129V10.7063C67.5846 8.90927 67.0473 7.44148 66.0649 6.42227C65.0822 5.40284 63.6665 4.84492 61.935 4.84461C60.577 4.8116 59.2409 5.17646 58.0921 5.89133V2.12452C58.0921 1.80853 57.9658 1.50563 57.7413 1.28241C57.5167 1.05922 57.2124 0.933955 56.8951 0.933955C56.5779 0.933955 56.2735 1.05922 56.049 1.28241C55.8244 1.50563 55.6981 1.80853 55.6981 2.12452V16.6129C55.6981 16.9289 55.8244 17.2318 56.049 17.455C56.2735 17.6782 56.5779 17.8034 56.8951 17.8034C57.2124 17.8034 57.5167 17.6782 57.7413 17.455C57.9658 17.2318 58.0921 16.9289 58.0921 16.6129V9.07628C58.7395 7.92998 60.1741 7.18144 61.8171 7.18144C63.0072 7.18144 63.8411 7.46475 64.3803 8.04053C64.9211 8.61806 65.1881 9.51369 65.1881 10.79V16.6129Z" fill="white" stroke="white" stroke-width="0.24"/>
<path d="M82.0882 15.9559C82.2363 16.1498 82.3183 16.3864 82.321 16.6312L82.321 16.6325C82.321 16.9427 82.197 17.2399 81.9767 17.459C81.7566 17.6778 81.4583 17.8007 81.1474 17.801C81.147 17.801 81.1466 17.801 81.1463 17.801V17.681C81.0133 17.6834 80.8811 17.6591 80.7578 17.6096C80.6344 17.5602 80.5223 17.4865 80.4283 17.393L82.0882 15.9559ZM82.0882 15.9559L82.0975 15.9281L82.048 15.8758L77.8055 11.3903L82.0481 6.89025L82.0483 6.89008L82.083 6.85316L82.0892 6.84647L82.0944 6.83889L82.1298 6.78732L82.0882 15.9559ZM71.259 17.801C71.4077 17.8035 71.5554 17.7763 71.6933 17.721C71.8315 17.6656 71.9572 17.583 72.0627 17.4782L72.0627 17.4782L72.0654 17.4754L76.2044 13.0936L80.3261 17.4631L80.3312 17.4684L80.3368 17.4731L80.3477 17.4821L82.0326 6.71687C82.1671 6.54174 82.2386 6.32682 82.2356 6.10652L82.3556 6.10652C82.3556 6.10628 82.3556 6.10603 82.3556 6.10579C82.3554 5.79641 82.2319 5.49986 82.0123 5.28104C81.7925 5.06208 81.4945 4.93883 81.1837 4.9381L81.1821 4.93811C81.0089 4.93996 80.8382 4.97901 80.6816 5.05261C80.526 5.12572 80.388 5.23124 80.2769 5.36204L76.2143 9.67005L72.1469 5.36205C72.0362 5.23147 71.8986 5.12607 71.7435 5.05295C71.5873 4.97934 71.417 4.94018 71.2442 4.93811L71.2442 4.93811H71.2428C71.0886 4.93811 70.936 4.96829 70.7935 5.02695C70.651 5.08561 70.5215 5.17161 70.4124 5.28007C70.3033 5.38854 70.2167 5.51734 70.1576 5.65915C70.0986 5.80072 70.0682 5.95246 70.0681 6.10572M71.259 17.801C71.2587 17.801 71.2583 17.801 71.258 17.8009L71.2601 17.681V17.801C71.2598 17.801 71.2594 17.801 71.259 17.801ZM71.259 17.801C70.9481 17.8007 70.6498 17.6778 70.4297 17.459C70.2093 17.2399 70.0854 16.9427 70.0854 16.6325V16.6312H70.0854C70.0883 16.3639 70.1859 16.1062 70.3608 15.9035L70.3991 15.8559L70.4051 15.8485L70.4054 15.8487L74.6158 11.3904L70.3409 6.85579L70.3337 6.84812L70.3279 6.83931L70.2931 6.78632C70.1442 6.59071 70.065 6.35126 70.0681 6.10572M70.0681 6.10572C70.0681 6.10546 70.0681 6.10519 70.0681 6.10492L70.1881 6.10652H70.0681C70.0681 6.10626 70.0681 6.10599 70.0681 6.10572Z" fill="white" stroke="white" stroke-width="0.24"/>
</svg>
